<svg xmlns="http://www.w3.org/2000/svg" xmlns:xlink="http://www.w3.org/1999/xlink" viewBox="0 0 460.2 380.11"><defs><style>.a{fill:url(#a);}.b{fill:url(#b);}.c{fill:url(#c);}.d{fill:url(#d);}.e{fill:url(#e);}.f{isolation:isolate;}.g{fill:url(#f);}.h{fill:url(#g);}.i{fill:url(#h);}.j{clip-path:url(#j);}.k{fill:url(#l);}.l{fill:url(#n);}.m{fill:#1a1a1a;}</style><linearGradient id="a" x1="-20.21" y1="337.16" x2="284.96" y2="31.99" gradientUnits="userSpaceOnUse"><stop offset="0" stop-color="#5384b6"/><stop offset="1" stop-color="#71d7b9"/></linearGradient><linearGradient id="b" x1="0" y1="299.98" x2="265.65" y2="299.98" xlink:href="#a"/><linearGradient id="c" x1="262.63" y1="221.29" x2="262.64" y2="221.29" xlink:href="#a"/><linearGradient id="d" x1="0" y1="80.13" x2="265.65" y2="80.13" xlink:href="#a"/><linearGradient id="e" x1="262.63" y1="1.44" x2="262.64" y2="1.44" xlink:href="#a"/><linearGradient id="f" x1="0" y1="299.98" x2="265.65" y2="299.98" xlink:href="#a"/><linearGradient id="g" x1="262.63" y1="221.29" x2="262.64" y2="221.29" xlink:href="#a"/><linearGradient id="h" x1="0.04" y1="374.7" x2="8.45" y2="374.7" xlink:href="#a"/><clipPath id="j"><polygon class="a" points="9.73 367.11 9.1 144.02 255.01 2.05 255.65 225.13 9.73 367.11"/></clipPath><linearGradient id="l" x1="0" y1="80.13" x2="265.65" y2="80.13" xlink:href="#a"/><linearGradient id="n" x1="0.04" y1="154.85" x2="8.45" y2="154.85" xlink:href="#a"/></defs><title>courses</title><path class="b" d="M265.64,227.31l0-.22v-.2h0a6.06,6.06,0,0,0-.15-.78V226l-.05-.17a1.42,1.42,0,0,0-.05-.16l0-.09-.08-.24a6.46,6.46,0,0,0-.39-1v0l0,0-.05-.11,0,.06-.15-.33,0,0s-.05-.09-.07-.14l-.14-.24-.23-.39-.26-.38-.13-.18-.07-.09-.07-.1-.29-.35h0l-.09-.11-.2-.22-.06-.06-.14-.15-.11-.1-.13-.13,0,0,0,0-.06-.06h0l-.13-.12-.33-.27-.24-.17-.35-.23c.25.16.4.27.54.37l-.1-.07c-.22-.16-.41-.28-.55-.37h0l-.33-.16.23.11-.36-.17h0a3,3,0,0,0-.32-.11l-.08,0,.06,0-.43-.11h-.23l-.24,0h-.17a4.51,4.51,0,0,0-.52,0h-.07c-.16,0-.33,0-.53.07h.05l-.1,0-.53.12.05,0h0l-.3.08h0c-.1,0-.19.06-.29.09l-.17.06.05,0-.14,0-.11,0-.06,0-.11,0-.73.3c-2.69,1.05-7.06,3.2-14.78,7.24l-.75.39-1.57.83-1.31.69-.32.17-1.85,1-.59.32c-6.83,3.62-18.65,10-37.14,20.4l-2.59,1.46h0L191.93,255l-3.17,1.79-1.79,1-.88.5-7.54,4.27h0l-.37.21c-6,3.39-11.42,6.52-16.45,9.41l-.85.49-8.4,4.84-.79.46-9.39,5.44L113.73,300h0L107,303.94l-9.22,5.39-9,5.28-8.7,5.14-3.12,1.85q-6.27,3.72-12.14,7.24a3.37,3.37,0,0,0-.32.19l-1.62,1c-18.33,11-30.93,18.77-39.27,24l-4,2.55c-8.25,5.25-13,8.41-15.67,10.47A22.62,22.62,0,0,0,2,368.6l-.05,0c-.12.11-.24.22-.34.33l0,0-.21.23a3.82,3.82,0,0,0-1.28,2.43,4.41,4.41,0,0,0,0,.45,9.32,9.32,0,0,0,3.89,7.24l.35.22,0,0a3.09,3.09,0,0,0,.71.3H5l.13,0a2.87,2.87,0,0,0,.68.15h.07a3.25,3.25,0,0,0,.63,0h.19l.2,0,.23,0,.17,0h.12a9,9,0,0,0,1.71-.51h0l.09,0,.5-.2,1.73-.76c.81-.36,2.7-1.23,6.23-3l.08,0,.05,0,3.86-2,.17-.09,1.06-.55c1.11-.57,2.3-1.19,3.6-1.88,10.7-5.62,23.28-12.57,23.81-12.87l7.09-3.92L65,349.91l4.36-2.44,1.19-.67,2.3-1.3,1.79-1c5.09-2.87,10.23-5.78,15.59-8.85l.41-.23,3.46-2L98.28,331l9-5.19L114,322l9.38-5.44L151.93,300c18.29-10.63,31.66-18.56,36-21.17,18.17-10.77,30.63-18.38,31.15-18.7h0l6.79-4.15,2.16-1.33,4-2.45.21-.13.33-.2,5.46-3.4.08,0,.2-.13,3.32-2.08,1.84-1.16,4.83-3.08s1.91-1.22,4.18-2.71l.07,0,.12-.08c1.16-.76,2.42-1.59,3.58-2.37,2.86-1.93,3.38-2.31,5.57-3.9.48-.35,1.07-.78,1.64-1.28h0l.2-.17,0,0,.16-.15a3.55,3.55,0,0,0,.47-.49.52.52,0,0,0,.1-.11l0,0,.14-.16,0,0,.05-.07.12-.16h0l0-.06a1.3,1.3,0,0,0,.1-.15h0l0,0,0,0a3.72,3.72,0,0,0,.65-2.14h0C265.65,227.6,265.64,227.44,265.64,227.31ZM4.25,369.87,4,369.75H4Zm-1.94-.55H2l.3,0Zm-.44,0a1.91,1.91,0,0,0-.52.19A1.91,1.91,0,0,1,1.87,369.35Zm-.66.27a2.36,2.36,0,0,0-.43.35h0A1.7,1.7,0,0,1,1.21,369.62Zm-1.12,2s0,0,0-.06a5.53,5.53,0,0,0-.06.73A4.68,4.68,0,0,1,.09,371.6Zm.27,2.74a10,10,0,0,0,2.23,3.87A10,10,0,0,1,.36,374.34Zm4,5.27-.15-.08c.09.05.17.07.25.12Zm2.34.42h0a1.75,1.75,0,0,0,.32-.12A2.52,2.52,0,0,1,6.71,380Zm.59-.28a1.79,1.79,0,0,0,.38-.3A1.79,1.79,0,0,1,7.3,379.75Zm.86-1.08.08-.24a0,0,0,0,0,0,0A1.33,1.33,0,0,1,8.16,378.67Zm-.34.59a3,3,0,0,0,.23-.35A3,3,0,0,1,7.82,379.26ZM116.5,299.65h0Z"/><polygon class="c" points="262.64 221.29 262.63 221.28 262.64 221.29 262.64 221.29"/><path class="d" d="M265.64,7.46l0-.22V7h0a6.06,6.06,0,0,0-.15-.78V6.2L265.39,6a1.09,1.09,0,0,0-.05-.17l0-.09-.08-.24a6.88,6.88,0,0,0-.39-1v0l0,0-.05-.11,0,.06-.15-.33,0,0c0-.05-.05-.09-.07-.14l-.14-.24-.23-.39-.26-.38-.13-.18-.07-.09-.07-.1-.29-.35h0l-.09-.1-.2-.23L263,1.8a1.85,1.85,0,0,0-.14-.14l-.11-.11-.13-.12,0,0,0,.05-.06-.06h0l-.13-.12L262.1,1l-.24-.17-.35-.23c.25.16.4.27.54.37L262,.88a6.13,6.13,0,0,0-.55-.36h0l-.33-.17.23.12-.36-.18h0l-.32-.11-.08,0,.06,0-.43-.1-.14,0h-.09l-.24,0h-.76c-.16,0-.33,0-.53.07h.05l-.1,0-.53.12.05,0h0l-.3.08h0l-.29.09-.17.06.05,0-.14,0-.11,0-.06,0-.11,0-.73.3c-2.69,1-7.06,3.21-14.78,7.24l-.75.39-1.57.83-1.31.69-.32.17-1.85,1-.59.31c-6.83,3.62-18.65,10-37.14,20.4l-2.59,1.46,0,0-3.11,1.75-3.17,1.78-1.79,1-.88.5-7.54,4.27h0l-.37.21c-6,3.39-11.42,6.52-16.45,9.41l-.85.49-8.4,4.85-.79.45-9.39,5.44L113.73,80.15,107,84.09l-9.22,5.39-9,5.28-8.7,5.14-3.12,1.85Q70.67,105.47,64.8,109l-.32.19-1.62,1c-18.33,11-30.93,18.78-39.27,24l-4,2.55c-8.25,5.25-13,8.41-15.67,10.47A22.62,22.62,0,0,0,2,148.75l-.05.05c-.12.11-.24.22-.34.33l0,0-.21.23a3.84,3.84,0,0,0-1.28,2.43,4.41,4.41,0,0,0,0,.45,9.35,9.35,0,0,0,3.89,7.25l.35.22h0a2.71,2.71,0,0,0,.71.3H5l.13,0a4.38,4.38,0,0,0,.68.15h.07a2.19,2.19,0,0,0,.63,0h.19l.2,0,.23,0,.17,0,.12,0a8.34,8.34,0,0,0,1.71-.51h0l.09,0,.5-.21c.54-.22,1.11-.48,1.73-.75.81-.37,2.7-1.24,6.23-3l.08,0,.05,0,3.86-2,.17-.08,1.06-.56c1.11-.57,2.3-1.19,3.6-1.88,10.7-5.62,23.28-12.57,23.81-12.86l7.09-3.93L65,130.07l4.36-2.45L70.5,127l2.3-1.29,1.79-1c5.09-2.87,10.23-5.78,15.59-8.84l.41-.23,3.46-2,4.23-2.42,9-5.19,6.66-3.84,9.38-5.44,28.58-16.6c18.29-10.64,31.66-18.57,36-21.17,18.17-10.78,30.63-18.39,31.15-18.71h0l6.79-4.15,2.16-1.33,4-2.45.21-.13.33-.2,5.46-3.4.08-.05.2-.12,3.32-2.09,1.84-1.16,4.83-3.08s1.91-1.22,4.18-2.71l.07,0,.12-.08c1.16-.76,2.42-1.59,3.58-2.37,2.86-1.93,3.38-2.31,5.57-3.89.48-.36,1.07-.79,1.64-1.29h0l.2-.17,0,0a1.21,1.21,0,0,0,.16-.16,4.19,4.19,0,0,0,.47-.48l.1-.12,0,0,.14-.16,0,0,.05-.07a1.58,1.58,0,0,0,.12-.15v0h0a.43.43,0,0,1,0-.07l.1-.14h0v0l0,0,0,0a3.69,3.69,0,0,0,.65-2.13h0C265.65,7.75,265.64,7.59,265.64,7.46ZM4.25,150,4,149.9H4Zm-1.94-.55H2l.3,0Zm-.44,0a2.31,2.31,0,0,0-.52.19A2.31,2.31,0,0,1,1.87,149.5Zm-.66.27a2.36,2.36,0,0,0-.43.35h0A2.31,2.31,0,0,1,1.21,149.77Zm-1.12,2a.43.43,0,0,0,0-.05,5.37,5.37,0,0,0-.06.72A4.91,4.91,0,0,1,.09,151.75Zm.27,2.75a10.05,10.05,0,0,0,2.23,3.86A10.05,10.05,0,0,1,.36,154.5Zm4,5.26-.15-.08.25.12Zm2.34.42h0a1.75,1.75,0,0,0,.32-.12C6.9,160.1,6.81,160.15,6.71,160.18Zm.59-.27a2.79,2.79,0,0,0,.38-.3A2.79,2.79,0,0,1,7.3,159.91Zm.86-1.09c0-.07.05-.16.08-.24a.06.06,0,0,0,0,0A1.76,1.76,0,0,1,8.16,158.82Zm-.34.6a3.17,3.17,0,0,0,.23-.36A3.17,3.17,0,0,1,7.82,159.42ZM116.5,79.8h0Z"/><polygon class="e" points="262.64 1.44 262.63 1.44 262.64 1.44 262.64 1.44"/><g class="f"><path class="g" d="M265,229.86a3.71,3.71,0,0,0,.65-2.13h0c0-.12,0-.28,0-.41l0-.22v-.2h0a6.06,6.06,0,0,0-.15-.78V226l-.05-.17a1.42,1.42,0,0,0-.05-.16l0-.09-.08-.24a6.46,6.46,0,0,0-.39-1v0l0,0-.05-.11,0,.06-.16-.33v0s-.05-.09-.07-.14l-.14-.24-.23-.39-.26-.38-.13-.18-.07-.09-.07-.1-.29-.35h0l-.09-.11-.2-.22-.06-.06-.14-.15-.11-.1-.13-.13,0,0,0,0-.06-.06h0l-.13-.12-.33-.27-.24-.17-.35-.23c.25.16.4.27.54.37l-.1-.07c-.22-.16-.41-.28-.55-.37h0l-.33-.16.23.11-.36-.17h0a2.39,2.39,0,0,0-.32-.11l-.08,0,.06,0-.43-.11h-.23l-.24,0h-.17a4.51,4.51,0,0,0-.52,0h-.07c-.16,0-.33,0-.53.07h.05l-.1,0-.53.12.05,0h0l-.3.08h0c-.1,0-.19.06-.29.09l-.17.06.05,0-.14,0-.11,0-.06,0-.11,0-.73.3c-2.69,1.05-7.06,3.2-14.78,7.24l-.75.39-1.57.83-1.31.69-.32.17-1.85,1-.59.32c-6.83,3.62-18.65,10-37.14,20.4l-2.59,1.46h0L191.93,255l-3.17,1.79-1.79,1-.88.5-7.54,4.27h0l-.37.21c-6,3.39-11.42,6.52-16.45,9.41l-.85.49-8.4,4.84-.79.46-9.39,5.44L113.73,300h0L107,303.94l-9.22,5.39-9,5.28-8.7,5.14-3.12,1.85q-6.27,3.72-12.14,7.24l-.32.19-1.62,1c-18.33,11-30.93,18.77-39.27,24l-4,2.55c-8.25,5.25-13,8.41-15.67,10.47A22.62,22.62,0,0,0,2,368.6l-.05,0c-.12.11-.24.22-.34.33l0,0-.21.23a3.82,3.82,0,0,0-1.28,2.43,4.41,4.41,0,0,0,0,.45,9.32,9.32,0,0,0,3.89,7.24l.35.22,0,0a3.09,3.09,0,0,0,.71.3,2.91,2.91,0,0,0,1.59.16h.13l.2,0,.23,0,.17,0h.12a9,9,0,0,0,1.71-.51h0l.09,0,.5-.2,1.73-.76c.81-.36,2.7-1.23,6.23-3l.08,0,.05,0,3.86-2,.17-.09,1.06-.55c1.11-.57,2.3-1.19,3.6-1.88,10.7-5.62,23.28-12.57,23.81-12.87l7.09-3.92L65,349.91l4.36-2.44,1.19-.67,2.3-1.3,1.79-1c5.09-2.87,10.23-5.78,15.59-8.85l.41-.23,3.46-2L98.28,331l9-5.19L114,322l9.38-5.44L151.93,300c18.29-10.63,31.66-18.56,36-21.17,18.17-10.77,30.63-18.38,31.15-18.7h0l6.79-4.15,2.16-1.33,4-2.45.21-.13.33-.2,5.46-3.4.08,0,.2-.13,3.32-2.08,1.84-1.16,4.83-3.08s1.91-1.22,4.18-2.71l.07,0,.12-.08c1.16-.76,2.42-1.59,3.58-2.37,2.86-1.93,3.38-2.31,5.57-3.9.48-.35,1.07-.78,1.64-1.28h0l.2-.17,0,0,.16-.15a3.55,3.55,0,0,0,.47-.49.52.52,0,0,0,.1-.11l0,0,.14-.16,0,0,.05-.07.12-.16h0l0-.06a1.3,1.3,0,0,0,.1-.15h0l0,0ZM116.5,299.65h0ZM4.22,379.53A9.23,9.23,0,0,1,0,372.27a4.68,4.68,0,0,1,0-.67,5.71,5.71,0,0,1,.56-1.42L.76,370l0,0a2,2,0,0,1,1.5-.66c.38.5,1.17.29,1.75.46l.21.11c.15.08.28.19.43.29a6,6,0,0,1,.89.93l0,0a4.4,4.4,0,0,0,.21.5A26.57,26.57,0,0,0,7,375.15a8,8,0,0,0,.52,1.36,8.84,8.84,0,0,0,.75,1.95A2.22,2.22,0,0,1,6.71,380a5.86,5.86,0,0,1-.94,0,4.73,4.73,0,0,1-1.4-.41Z"/><polygon class="h" points="262.64 221.29 262.63 221.28 262.64 221.29 262.64 221.29"/><path class="i" d="M4.25,369.87a9.22,9.22,0,0,1,4.2,7.26c0,2.67-1.9,3.75-4.23,2.4A9.23,9.23,0,0,1,0,372.27C0,369.61,1.93,368.53,4.25,369.87Z"/></g><g class="f"><polygon class="a" points="9.73 367.11 9.1 144.02 255.01 2.05 255.65 225.13 9.73 367.11"/><g class="j"><polyline class="a" points="255.01 2.05 9.1 144.02 9.73 367.11 255.65 225.13 255.01 2.05"/></g></g><g class="f"><path class="k" d="M265,10a3.69,3.69,0,0,0,.65-2.13h0c0-.13,0-.29,0-.42l0-.22V7h0a6.06,6.06,0,0,0-.15-.78V6.2L265.39,6a1.09,1.09,0,0,0-.05-.17l0-.09-.08-.24a6.88,6.88,0,0,0-.39-1v0l0,0-.05-.11,0,.06-.16-.33v0c0-.05-.05-.09-.07-.14l-.14-.24-.23-.39-.26-.38-.13-.18-.07-.09-.07-.1-.29-.35h0l-.09-.1-.2-.23L263,1.8a1.85,1.85,0,0,0-.14-.14l-.11-.11-.13-.12,0,0,0,.05-.06-.06h0l-.13-.12L262.1,1l-.24-.17-.35-.23c.25.16.4.27.54.37L262,.88a6.13,6.13,0,0,0-.55-.36h0l-.33-.17.23.12-.36-.18h0l-.32-.11-.08,0,.06,0-.43-.1-.14,0h-.09l-.24,0h-.76c-.16,0-.33,0-.53.07h.05l-.1,0-.53.12.05,0h0l-.3.08h0l-.29.09-.17.06.05,0-.14,0-.11,0-.06,0-.11,0-.73.3c-2.69,1-7.06,3.21-14.78,7.24l-.75.39-1.57.83-1.31.69-.32.17-1.85,1-.59.31c-6.83,3.62-18.65,10-37.14,20.4l-2.59,1.46,0,0-3.11,1.75-3.17,1.78-1.79,1-.88.5-7.54,4.27h0l-.37.21c-6,3.39-11.42,6.52-16.45,9.41l-.85.49-8.4,4.85-.79.45-9.39,5.44L113.73,80.15h0L107,84.09l-9.22,5.39-9,5.28-8.7,5.14-3.12,1.85Q70.67,105.47,64.8,109l-.32.19-1.62,1c-18.33,11-30.93,18.78-39.27,24l-4,2.55c-8.25,5.25-13,8.41-15.67,10.47A22.62,22.62,0,0,0,2,148.75l-.05.05c-.12.11-.24.22-.34.33l0,0-.21.23a3.84,3.84,0,0,0-1.28,2.43,4.41,4.41,0,0,0,0,.45,9.35,9.35,0,0,0,3.89,7.25l.35.22h0a2.71,2.71,0,0,0,.71.3,2.91,2.91,0,0,0,1.59.16h.13l.2,0,.23,0,.17,0,.12,0a8.34,8.34,0,0,0,1.71-.51h0l.09,0,.5-.21c.54-.22,1.11-.48,1.73-.75.81-.37,2.7-1.24,6.23-3l.08,0,.05,0,3.86-2,.17-.08,1.06-.56c1.11-.57,2.3-1.19,3.6-1.88,10.7-5.62,23.28-12.57,23.81-12.86l7.09-3.93L65,130.07l4.36-2.45L70.5,127l2.3-1.29,1.79-1c5.09-2.87,10.23-5.78,15.59-8.84l.41-.23,3.46-2,4.23-2.42,9-5.19,6.66-3.84,9.38-5.44,28.58-16.6c18.29-10.64,31.66-18.57,36-21.17,18.17-10.78,30.63-18.39,31.15-18.71h0l6.79-4.15,2.16-1.33,4-2.45.21-.13.33-.2,5.46-3.4.08-.05.2-.12,3.32-2.09,1.84-1.16,4.83-3.08s1.91-1.22,4.18-2.71l.07,0,.12-.08c1.16-.76,2.42-1.59,3.58-2.37,2.86-1.93,3.38-2.31,5.57-3.89.48-.36,1.07-.79,1.64-1.29h0l.2-.17,0,0a1.21,1.21,0,0,0,.16-.16,4.19,4.19,0,0,0,.47-.48l.1-.12,0,0,.14-.16,0,0,.05-.07a1.58,1.58,0,0,0,.12-.15v0h0a.43.43,0,0,1,0-.07l.1-.14h0v0l0,0ZM116.5,79.8h0ZM4.22,159.68A9.23,9.23,0,0,1,0,152.42a4.91,4.91,0,0,1,0-.67,5.71,5.71,0,0,1,.56-1.42l.11-.18,0,0a2.09,2.09,0,0,1,1.5-.66c.38.5,1.17.29,1.75.46l.21.11c.15.08.28.2.43.29a6,6,0,0,1,.89.93l0,0a5.16,5.16,0,0,0,.21.49A26.57,26.57,0,0,0,7,155.3a8.39,8.39,0,0,0,.52,1.37,9.24,9.24,0,0,0,.75,2,2.22,2.22,0,0,1-1.54,1.56,4.89,4.89,0,0,1-.94,0,4.73,4.73,0,0,1-1.4-.41Z"/><polygon class="e" points="262.64 1.44 262.63 1.44 262.64 1.44 262.64 1.44"/><path class="l" d="M4.25,150a9.23,9.23,0,0,1,4.2,7.26c0,2.67-1.9,3.75-4.23,2.4A9.23,9.23,0,0,1,0,152.42C0,149.76,1.93,148.68,4.25,150Z"/></g><path class="m" d="M348.35,213c-8.18,0-15.32-3.22-19.1-8.61l4.12-2.9c2.8,4,8.54,6.47,15,6.47s11.16-4.61,11.16-7.71c0-2,0-5-13.3-8.3-4-1-16.27-4-15.33-13.44.56-5.77,6.11-12,17-12a20.15,20.15,0,0,1,16.68,8.3l-4.23,2.74a15.09,15.09,0,0,0-12.45-6c-8.85,0-11.68,4.68-11.95,7.45-.14,1.4-.5,5.11,11.52,8,14.28,3.48,17.14,7.63,17.14,13.19C364.55,206.25,357.62,213,348.35,213Z"/><path class="m" d="M444,213c-8.18,0-15.32-3.22-19.1-8.61l4.12-2.9c2.8,4,8.54,6.47,15,6.47s11.16-4.61,11.16-7.71c0-2,0-5-13.3-8.3-4-1-16.27-4-15.34-13.44.57-5.77,6.12-12,17-12a20.16,20.16,0,0,1,16.69,8.3l-4.23,2.74a15.12,15.12,0,0,0-12.46-6c-8.85,0-11.67,4.68-11.94,7.45-.14,1.4-.5,5.11,11.52,8,14.27,3.48,17.14,7.63,17.14,13.19C460.2,206.25,453.27,213,444,213Z"/><path class="m" d="M395.8,213a23,23,0,1,1,23-23v2.52l-40.78.06a18,18,0,0,0,34.55,3.85l4.71,1.81A23.14,23.14,0,0,1,395.8,213Zm0-41A18,18,0,0,0,378,187.52l35.57-.06A18,18,0,0,0,395.8,172Z"/><path class="m" d="M299.85,213.61h-5V167h5v9a21.76,21.76,0,0,1,17.08-8.4,21.41,21.41,0,0,1,8.39,1.71l-2,4.64a16.27,16.27,0,0,0-6.42-1.31c-9.42,0-17.08,8.06-17.08,18Z"/><path class="m" d="M155.37,213A23,23,0,1,1,177,182l-4.73,1.74a18,18,0,1,0-.08,12.65l4.7,1.81A23.14,23.14,0,0,1,155.37,213Z"/><path class="m" d="M208.66,213a23,23,0,1,1,23-23A23,23,0,0,1,208.66,213Zm0-41a18,18,0,1,0,18,18A18,18,0,0,0,208.66,172Z"/><path class="m" d="M285,213.61h-5v-9a21.76,21.76,0,0,1-17.08,8.4c-12.2,0-22.12-10.32-22.12-23V167h5v23c0,9.9,7.66,18,17.08,18s17.08-8.06,17.08-18V167h5Z"/></svg>