<svg xmlns="http://www.w3.org/2000/svg" xmlns:xlink="http://www.w3.org/1999/xlink" viewBox="0 0 383.63 380.11"><defs><style>.a{fill:url(#a);}.b{fill:url(#b);}.c{fill:url(#c);}.d{fill:url(#d);}.e{fill:url(#e);}.f{isolation:isolate;}.g{fill:url(#f);}.h{fill:url(#g);}.i{fill:url(#h);}.j{clip-path:url(#j);}.k{fill:url(#l);}.l{fill:url(#n);}.m{fill:#1a1a1a;}</style><linearGradient id="a" x1="38.78" y1="337.16" x2="343.95" y2="31.99" gradientUnits="userSpaceOnUse"><stop offset="0" stop-color="#5384b6"/><stop offset="1" stop-color="#71d7b9"/></linearGradient><linearGradient id="b" x1="58.99" y1="299.98" x2="324.64" y2="299.98" xlink:href="#a"/><linearGradient id="c" x1="321.62" y1="221.29" x2="321.63" y2="221.29" xlink:href="#a"/><linearGradient id="d" x1="58.99" y1="80.13" x2="324.64" y2="80.13" xlink:href="#a"/><linearGradient id="e" x1="321.62" y1="1.44" x2="321.63" y2="1.44" xlink:href="#a"/><linearGradient id="f" x1="58.99" y1="299.98" x2="324.64" y2="299.98" xlink:href="#a"/><linearGradient id="g" x1="321.62" y1="221.29" x2="321.63" y2="221.29" xlink:href="#a"/><linearGradient id="h" x1="59.03" y1="374.7" x2="67.44" y2="374.7" xlink:href="#a"/><clipPath id="j"><polygon class="a" points="68.72 367.11 68.09 144.02 314 2.05 314.64 225.13 68.72 367.11"/></clipPath><linearGradient id="l" x1="58.99" y1="80.13" x2="324.64" y2="80.13" xlink:href="#a"/><linearGradient id="n" x1="59.03" y1="154.85" x2="67.44" y2="154.85" xlink:href="#a"/></defs><title>courses-mobile</title><path class="b" d="M324.63,227.31l0-.22v-.2h0a6.06,6.06,0,0,0-.15-.78V226l-.05-.17c0-.05,0-.1,0-.16l0-.09-.08-.24a5.59,5.59,0,0,0-.39-1v0l0,0-.05-.11,0,.06-.15-.33,0,0s-.05-.09-.07-.14l-.14-.24-.23-.39-.26-.38-.13-.18-.07-.09-.07-.1-.29-.35h0l-.1-.11-.19-.22-.07-.06-.14-.15-.11-.1-.13-.13,0,0,0,0-.06-.06h0l-.13-.12-.33-.27-.23-.17-.36-.23c.25.16.4.27.54.37l-.1-.07c-.22-.16-.41-.28-.55-.37h0l-.33-.16.23.11-.36-.17h0a2.39,2.39,0,0,0-.32-.11l-.08,0,.06,0-.43-.11h-.23l-.24,0h-.17a4.51,4.51,0,0,0-.52,0h-.07c-.16,0-.33,0-.53.07h.05l-.09,0-.54.12,0,0h0l-.3.08h0c-.1,0-.19.06-.29.09l-.16.06.05,0-.15,0-.11,0-.06,0-.11,0-.72.3c-2.7,1.05-7.07,3.2-14.79,7.24l-.75.39-1.57.83-1.31.69-.32.17-1.85,1-.59.32c-6.83,3.62-18.65,10-37.14,20.4l-2.59,1.46h0L250.92,255l-3.16,1.79-1.8,1-.88.5-7.54,4.27h0l-.37.21c-6,3.39-11.42,6.52-16.45,9.41l-.85.49-8.4,4.84-.79.46-9.39,5.44L172.72,300h0L166,303.94l-9.22,5.39-9,5.28-8.7,5.14-3.12,1.85q-6.27,3.72-12.14,7.24l-.32.19-1.62,1c-18.33,11-30.93,18.77-39.27,24l-4,2.55c-8.25,5.25-13,8.41-15.67,10.47A22.62,22.62,0,0,0,61,368.6l-.05,0c-.12.11-.24.22-.34.33l0,0-.21.23A3.82,3.82,0,0,0,59,371.67a4.41,4.41,0,0,0,0,.45,9.32,9.32,0,0,0,3.89,7.24l.35.22,0,0a3.09,3.09,0,0,0,.71.3h0l.13,0a2.87,2.87,0,0,0,.68.15h.07a3.25,3.25,0,0,0,.63,0h.19l.21,0,.22,0,.17,0h.12a9,9,0,0,0,1.71-.51h0l.09,0,.5-.2,1.73-.76c.81-.36,2.7-1.23,6.23-3l.08,0,0,0,3.86-2,.17-.09,1.06-.55,3.61-1.88c10.69-5.62,23.27-12.57,23.8-12.87l7.09-3.92,7.49-4.18,4.36-2.44,1.19-.67,2.3-1.3,1.79-1c5.09-2.87,10.23-5.78,15.6-8.85l.4-.23,3.46-2,4.23-2.42,9-5.19L173,322l9.39-5.44L210.92,300c18.29-10.63,31.66-18.56,36.06-21.17,18.16-10.77,30.62-18.38,31.14-18.7h0l6.79-4.15,2.16-1.33,4-2.45.21-.13.33-.2,5.47-3.4.08,0,.19-.13,3.32-2.08L302.5,245l4.84-3.08s1.9-1.22,4.18-2.71l.06,0,.12-.08c1.16-.76,2.42-1.59,3.58-2.37,2.86-1.93,3.38-2.31,5.57-3.9.48-.35,1.07-.78,1.64-1.28h0l.2-.17,0,0,.16-.15a3.55,3.55,0,0,0,.47-.49.52.52,0,0,0,.1-.11l0,0,.14-.16,0,0,0-.07a1.67,1.67,0,0,0,.12-.16h0l0-.06a1.3,1.3,0,0,0,.1-.15h0l0,0,0,0a3.72,3.72,0,0,0,.65-2.14h0C324.64,227.6,324.63,227.44,324.63,227.31ZM63.24,369.87l-.26-.12H63Zm-1.94-.55H61l.3,0Zm-.44,0a2,2,0,0,0-.52.19A2,2,0,0,1,60.86,369.35Zm-.66.27a2.36,2.36,0,0,0-.43.35h0A1.7,1.7,0,0,1,60.2,369.62Zm-1.12,2a.14.14,0,0,1,0-.06,4.21,4.21,0,0,0-.07.73A4.68,4.68,0,0,1,59.08,371.6Zm.27,2.74a10,10,0,0,0,2.23,3.87A10,10,0,0,1,59.35,374.34Zm4,5.27-.15-.08c.09.05.17.07.25.12Zm2.35.42h0a1.75,1.75,0,0,0,.32-.12A2.36,2.36,0,0,1,65.71,380Zm.58-.28a1.79,1.79,0,0,0,.38-.3A1.79,1.79,0,0,1,66.29,379.75Zm.86-1.08c0-.08,0-.16.08-.24v0A1.33,1.33,0,0,1,67.15,378.67Zm-.34.59a3,3,0,0,0,.23-.35A3,3,0,0,1,66.81,379.26Zm108.68-79.61Z"/><polygon class="c" points="321.63 221.29 321.62 221.28 321.63 221.29 321.63 221.29"/><path class="d" d="M324.63,7.46l0-.22V7h0a6.06,6.06,0,0,0-.15-.78V6.2L324.38,6c0-.06,0-.11,0-.17l0-.09-.08-.24a5.9,5.9,0,0,0-.39-1v0l0,0-.05-.11,0,.06-.15-.33,0,0c0-.05-.05-.09-.07-.14l-.14-.24-.23-.39-.26-.38-.13-.18-.07-.09-.07-.1-.29-.35h0l-.1-.1-.19-.23L322,1.8l-.14-.14-.11-.11-.13-.12,0,0,0,.05-.06-.06h0l-.13-.12L321.09,1l-.23-.17L320.5.58c.25.16.4.27.54.37l-.1-.07a6.13,6.13,0,0,0-.55-.36h0l-.33-.17.23.12-.36-.18h0l-.32-.11-.08,0,.06,0-.43-.1-.14,0h-.09l-.24,0h-.76c-.16,0-.33,0-.53.07h.05l-.09,0c-.18,0-.35.07-.54.12l0,0h0l-.3.08h0l-.29.09-.16.06.05,0-.15,0-.11,0-.06,0-.11,0-.72.3c-2.7,1-7.07,3.21-14.79,7.24l-.75.39-1.57.83-1.31.69-.32.17-1.85,1-.59.31c-6.83,3.62-18.65,10-37.14,20.4l-2.59,1.46,0,0-3.11,1.75-3.16,1.78-1.8,1-.88.5-7.54,4.27h0l-.37.21c-6,3.39-11.42,6.52-16.45,9.41l-.85.49-8.4,4.85-.79.45-9.39,5.44L172.72,80.15,166,84.09l-9.22,5.39-9,5.28-8.7,5.14-3.12,1.85q-6.27,3.72-12.14,7.24l-.32.19-1.62,1c-18.33,11-30.93,18.78-39.27,24l-4,2.55c-8.25,5.25-13,8.41-15.67,10.47A22.62,22.62,0,0,0,61,148.75l-.05.05c-.12.11-.24.22-.34.33l0,0-.21.23A3.84,3.84,0,0,0,59,151.82a4.41,4.41,0,0,0,0,.45,9.35,9.35,0,0,0,3.89,7.25l.35.22h0a2.71,2.71,0,0,0,.71.3h0l.13,0a4.38,4.38,0,0,0,.68.15h.07a2.19,2.19,0,0,0,.63,0h.19l.21,0,.22,0,.17,0,.12,0a8.34,8.34,0,0,0,1.71-.51h0l.09,0,.5-.21c.54-.22,1.11-.48,1.73-.75.81-.37,2.7-1.24,6.23-3l.08,0,0,0,3.86-2,.17-.08,1.06-.56L85.56,151c10.69-5.62,23.27-12.57,23.8-12.86l7.09-3.93,7.49-4.17,4.36-2.45,1.19-.67,2.3-1.29,1.79-1c5.09-2.87,10.23-5.78,15.6-8.84l.4-.23,3.46-2,4.23-2.42,9-5.19,6.66-3.84,9.39-5.44,28.57-16.6C229.21,69.47,242.58,61.54,247,58.94c18.16-10.78,30.62-18.39,31.14-18.71h0c2.05-1.24,4.76-2.91,6.79-4.15l2.16-1.33,4-2.45.21-.13.33-.2,5.47-3.4.08-.05.19-.12,3.32-2.09,1.84-1.16,4.84-3.08s1.9-1.22,4.18-2.71l.06,0,.12-.08c1.16-.76,2.42-1.59,3.58-2.37,2.86-1.93,3.38-2.31,5.57-3.89.48-.36,1.07-.79,1.64-1.29h0l.2-.17,0,0a1.21,1.21,0,0,0,.16-.16,4.19,4.19,0,0,0,.47-.48l.1-.12,0,0,.14-.16,0,0,0-.07a1.58,1.58,0,0,0,.12-.15l0,0h0l0-.07.1-.14h0v0l0,0,0,0a3.69,3.69,0,0,0,.65-2.13h0C324.64,7.75,324.63,7.59,324.63,7.46ZM63.24,150,63,149.9H63Zm-1.94-.55H61l.3,0Zm-.44,0a2.5,2.5,0,0,0-.52.19A2.5,2.5,0,0,1,60.86,149.5Zm-.66.27a2.36,2.36,0,0,0-.43.35h0A2.31,2.31,0,0,1,60.2,149.77Zm-1.12,2,0-.05a4.09,4.09,0,0,0-.07.72A4.91,4.91,0,0,1,59.08,151.75Zm.27,2.75a10.05,10.05,0,0,0,2.23,3.86A10.05,10.05,0,0,1,59.35,154.5Zm4,5.26-.15-.08.25.12Zm2.35.42h0a1.75,1.75,0,0,0,.32-.12C65.89,160.1,65.81,160.15,65.71,160.18Zm.59-.27a3.47,3.47,0,0,0,.37-.3A3.47,3.47,0,0,1,66.3,159.91Zm.85-1.09c0-.07,0-.16.08-.24v0A1.76,1.76,0,0,1,67.15,158.82Zm-.34.6a3.17,3.17,0,0,0,.23-.36A3.17,3.17,0,0,1,66.81,159.42ZM175.49,79.8Z"/><polygon class="e" points="321.63 1.44 321.62 1.44 321.63 1.44 321.63 1.44"/><g class="f"><path class="g" d="M324,229.86a3.71,3.71,0,0,0,.65-2.13h0c0-.12,0-.28,0-.41l0-.22v-.2h0a6.06,6.06,0,0,0-.15-.78V226l-.05-.17c0-.05,0-.1,0-.16l0-.09-.08-.24a5.59,5.59,0,0,0-.39-1v0l0,0-.05-.11,0,.06-.15-.33,0,0s-.05-.09-.07-.14l-.14-.24-.23-.39-.26-.38-.13-.18-.07-.09-.07-.1-.29-.35h0l-.1-.11-.19-.22-.07-.06-.14-.15-.11-.1-.13-.13,0,0,0,0-.06-.06h0l-.13-.12-.33-.27-.23-.17-.36-.23c.25.16.4.27.54.37l-.1-.07c-.22-.16-.41-.28-.55-.37h0l-.33-.16.23.11-.36-.17h0a2.39,2.39,0,0,0-.32-.11l-.08,0,.06,0-.43-.11h-.23l-.24,0h-.17a4.51,4.51,0,0,0-.52,0h-.07c-.16,0-.33,0-.53.07h.05l-.09,0-.54.12,0,0h0l-.3.08h0c-.1,0-.19.06-.29.09l-.16.06.05,0-.15,0-.11,0-.06,0-.11,0-.72.3c-2.7,1.05-7.07,3.2-14.79,7.24l-.75.39-1.57.83-1.31.69-.32.17-1.85,1-.59.32c-6.83,3.62-18.65,10-37.14,20.4l-2.59,1.46h0L250.92,255l-3.16,1.79-1.8,1-.88.5-7.54,4.27h0l-.37.21c-6,3.39-11.42,6.52-16.45,9.41l-.85.49-8.4,4.84-.79.46-9.39,5.44L172.72,300h0L166,303.94l-9.22,5.39-9,5.28-8.7,5.14-3.12,1.85q-6.27,3.72-12.14,7.24l-.32.19-1.62,1c-18.33,11-30.93,18.77-39.27,24l-4,2.55c-8.25,5.25-13,8.41-15.67,10.47A22.62,22.62,0,0,0,61,368.6l-.05,0c-.12.11-.24.22-.34.33l0,0-.21.23A3.82,3.82,0,0,0,59,371.67a4.41,4.41,0,0,0,0,.45,9.32,9.32,0,0,0,3.89,7.24l.35.22,0,0a3.09,3.09,0,0,0,.71.3,2.91,2.91,0,0,0,1.59.16h.13l.21,0,.22,0,.17,0h.12a9,9,0,0,0,1.71-.51h0l.09,0,.5-.2,1.73-.76c.81-.36,2.7-1.23,6.23-3l.08,0,0,0,3.86-2,.17-.09,1.06-.55,3.61-1.88c10.69-5.62,23.27-12.57,23.8-12.87l7.09-3.92,7.49-4.18,4.36-2.44,1.19-.67,2.3-1.3,1.79-1c5.09-2.87,10.23-5.78,15.6-8.85l.4-.23,3.46-2,4.23-2.42,9-5.19L173,322l9.39-5.44L210.92,300c18.29-10.63,31.66-18.56,36.06-21.17,18.16-10.77,30.62-18.38,31.14-18.7h0l6.79-4.15,2.16-1.33,4-2.45.21-.13.33-.2,5.47-3.4.08,0,.19-.13,3.32-2.08L302.5,245l4.84-3.08s1.9-1.22,4.18-2.71l.07,0,.11-.08c1.16-.76,2.42-1.59,3.58-2.37,2.86-1.93,3.38-2.31,5.57-3.9.48-.35,1.07-.78,1.64-1.28h0l.2-.17,0,0,.16-.15a3.55,3.55,0,0,0,.47-.49.52.52,0,0,0,.1-.11l0,0,.14-.16,0,0,0-.07a1.67,1.67,0,0,0,.12-.16h0l0-.06a1.3,1.3,0,0,0,.1-.15h0l0,0Zm-148.5,69.79h0ZM63.21,379.53A9.23,9.23,0,0,1,59,372.27a4.68,4.68,0,0,1,0-.67,5.71,5.71,0,0,1,.56-1.42l.11-.18,0,0a2,2,0,0,1,1.5-.66c.38.5,1.17.29,1.75.46l.21.11a4,4,0,0,1,.43.29,6,6,0,0,1,.89.93l0,0a4.4,4.4,0,0,0,.21.5A26.57,26.57,0,0,0,66,375.15a8.88,8.88,0,0,0,.52,1.36,9.37,9.37,0,0,0,.75,1.95A2.22,2.22,0,0,1,65.71,380a6,6,0,0,1-.95,0,4.73,4.73,0,0,1-1.4-.41Z"/><polygon class="h" points="321.63 221.29 321.62 221.28 321.63 221.29 321.63 221.29"/><path class="i" d="M63.24,369.87a9.22,9.22,0,0,1,4.2,7.26c0,2.67-1.9,3.75-4.23,2.4A9.23,9.23,0,0,1,59,372.27C59,369.61,60.92,368.53,63.24,369.87Z"/></g><g class="f"><polygon class="a" points="68.72 367.11 68.09 144.02 314 2.05 314.64 225.13 68.72 367.11"/><g class="j"><polyline class="a" points="314 2.05 68.09 144.02 68.72 367.11 314.64 225.13 314 2.05"/></g></g><g class="f"><path class="k" d="M324,10a3.69,3.69,0,0,0,.65-2.13h0c0-.13,0-.29,0-.42l0-.22V7h0a6.06,6.06,0,0,0-.15-.78V6.2L324.38,6c0-.06,0-.11,0-.17l0-.09-.08-.24a5.9,5.9,0,0,0-.39-1v0l0,0-.05-.11,0,.06-.15-.33,0,0c0-.05-.05-.09-.07-.14l-.14-.24-.23-.39-.26-.38-.13-.18-.07-.09-.07-.1-.29-.35h0l-.1-.1-.19-.23L322,1.8l-.14-.14-.11-.11-.13-.12,0,0,0,.05-.06-.06h0l-.13-.12L321.09,1l-.23-.17L320.5.58c.25.16.4.27.54.37l-.1-.07a6.13,6.13,0,0,0-.55-.36h0l-.33-.17.23.12-.36-.18h0l-.32-.11-.08,0,.06,0-.43-.1-.14,0h-.09l-.24,0h-.76c-.16,0-.33,0-.53.07h.05l-.09,0c-.18,0-.35.07-.54.12l0,0h0l-.3.08h0l-.29.09-.16.06.05,0-.15,0-.11,0-.06,0-.11,0-.72.3c-2.7,1-7.07,3.21-14.79,7.24l-.75.39-1.57.83-1.31.69-.32.17-1.85,1-.59.31c-6.83,3.62-18.65,10-37.14,20.4l-2.59,1.46,0,0-3.11,1.75-3.16,1.78-1.8,1-.88.5-7.54,4.27h0l-.37.21c-6,3.39-11.42,6.52-16.45,9.41l-.85.49-8.4,4.85-.79.45-9.39,5.44L172.72,80.15h0L166,84.09l-9.22,5.39-9,5.28-8.7,5.14-3.12,1.85q-6.27,3.72-12.14,7.24l-.32.19-1.62,1c-18.33,11-30.93,18.78-39.27,24l-4,2.55c-8.25,5.25-13,8.41-15.67,10.47A22.62,22.62,0,0,0,61,148.75l-.05.05c-.12.11-.24.22-.34.33l0,0-.21.23A3.84,3.84,0,0,0,59,151.82a4.41,4.41,0,0,0,0,.45,9.35,9.35,0,0,0,3.89,7.25l.35.22h0a2.71,2.71,0,0,0,.71.3,2.91,2.91,0,0,0,1.59.16h.13l.21,0,.22,0,.17,0,.12,0a8.34,8.34,0,0,0,1.71-.51h0l.09,0,.5-.21c.54-.22,1.11-.48,1.73-.75.81-.37,2.7-1.24,6.23-3l.08,0,0,0,3.86-2,.17-.08,1.06-.56L85.56,151c10.69-5.62,23.27-12.57,23.8-12.86l7.09-3.93,7.49-4.17,4.36-2.45,1.19-.67,2.3-1.29,1.79-1c5.09-2.87,10.23-5.78,15.6-8.84.13-.08.26-.16.4-.23l3.46-2,4.23-2.42,9-5.19,6.66-3.84,9.39-5.44,28.57-16.6C229.21,69.47,242.58,61.54,247,58.94c18.16-10.78,30.62-18.39,31.14-18.71h0c2.05-1.24,4.76-2.91,6.79-4.15l2.16-1.33,4-2.45.21-.13.33-.2,5.47-3.4.08-.05.19-.12,3.32-2.09,1.84-1.16,4.84-3.08s1.9-1.22,4.18-2.71l.07,0,.11-.08c1.16-.76,2.42-1.59,3.58-2.37,2.86-1.93,3.38-2.31,5.57-3.89.48-.36,1.07-.79,1.64-1.29h0l.2-.17,0,0a1.21,1.21,0,0,0,.16-.16,4.19,4.19,0,0,0,.47-.48l.1-.12,0,0,.14-.16,0,0,0-.07a1.58,1.58,0,0,0,.12-.15l0,0h0l0-.07.1-.14h0v0l0,0ZM175.49,79.8h0ZM63.21,159.68A9.23,9.23,0,0,1,59,152.42a4.91,4.91,0,0,1,0-.67,5.71,5.71,0,0,1,.56-1.42l.11-.18,0,0a2.09,2.09,0,0,1,1.5-.66c.38.5,1.17.29,1.75.46l.21.11c.15.08.29.2.43.29a6,6,0,0,1,.89.93l0,0a5.16,5.16,0,0,0,.21.49A26.57,26.57,0,0,0,66,155.3a9.42,9.42,0,0,0,.52,1.37,9.82,9.82,0,0,0,.75,2,2.23,2.23,0,0,1-1.53,1.56,5,5,0,0,1-.95,0,4.73,4.73,0,0,1-1.4-.41Z"/><polygon class="e" points="321.63 1.44 321.62 1.44 321.63 1.44 321.63 1.44"/><path class="l" d="M63.24,150a9.23,9.23,0,0,1,4.2,7.26c0,2.67-1.9,3.75-4.23,2.4A9.23,9.23,0,0,1,59,152.42C59,149.76,60.92,148.68,63.24,150Z"/></g><path class="m" d="M252.74,216.88c-9.57,0-17.92-3.76-22.35-10.08l4.83-3.39c3.27,4.67,10,7.57,17.52,7.57s13.06-5.39,13.06-9c0-2.35,0-5.91-15.56-9.71-4.71-1.15-19-4.65-18-15.72.67-6.76,7.16-14,19.85-14a23.64,23.64,0,0,1,19.53,9.71l-5,3.21a17.67,17.67,0,0,0-14.57-7c-10.36,0-13.66,5.48-14,8.71-.16,1.64-.59,6,13.48,9.42,16.71,4.08,20.06,8.93,20.06,15.44C271.7,209,263.59,216.88,252.74,216.88Z"/><path class="m" d="M364.67,216.88c-9.56,0-17.92-3.76-22.35-10.08l4.83-3.39c3.28,4.67,10,7.57,17.52,7.57s13.06-5.39,13.06-9c0-2.35,0-5.91-15.56-9.71-4.71-1.15-19-4.65-17.95-15.72.67-6.76,7.16-14,19.85-14a23.62,23.62,0,0,1,19.53,9.71l-5,3.21a17.67,17.67,0,0,0-14.57-7c-10.36,0-13.66,5.48-14,8.71-.16,1.64-.58,6,13.48,9.42,16.71,4.08,20.06,8.93,20.06,15.44C383.63,209,375.52,216.88,364.67,216.88Z"/><path class="m" d="M308.27,216.88A26.92,26.92,0,1,1,335.18,190v2.94l-47.71.08a21,21,0,0,0,40.43,4.51l5.5,2.11A27.07,27.07,0,0,1,308.27,216.88Zm0-47.93a21,21,0,0,0-20.82,18.14l41.63-.07A21,21,0,0,0,308.27,169Z"/><path class="m" d="M196,217.62h-5.9V163.05H196v10.57a25.46,25.46,0,0,1,20-9.83,24.81,24.81,0,0,1,9.83,2l-2.32,5.42a19,19,0,0,0-7.51-1.53c-11,0-20,9.43-20,21Z"/><path class="m" d="M26.92,216.88a26.92,26.92,0,1,1,25.26-36.23l-5.54,2a21,21,0,1,0-.09,14.81l5.5,2.11A27.08,27.08,0,0,1,26.92,216.88Z"/><path class="m" d="M89.28,216.88A26.92,26.92,0,1,1,116.19,190,26.94,26.94,0,0,1,89.28,216.88Zm0-47.93a21,21,0,1,0,21,21A21,21,0,0,0,89.28,169Z"/><path class="m" d="M178.55,217.62h-5.9V207.06a25.49,25.49,0,0,1-20,9.82c-14.28,0-25.89-12.07-25.89-26.91V163.05h5.9V190c0,11.59,9,21,20,21s20-9.42,20-21V163.05h5.9Z"/></svg>