<svg xmlns="http://www.w3.org/2000/svg" viewBox="0 0 56.04 56.04"><defs><style>.a{fill:#231815;}</style></defs><title>link_1</title><path class="a" d="M11.62,56A11.13,11.13,0,0,1,0,44.42a11.59,11.59,0,0,1,3.51-7.65l12.4-12.41A11.17,11.17,0,0,1,30.05,23a1.76,1.76,0,0,1,.27,2.7l-.2.2a1.78,1.78,0,0,1-2.27.17,7.39,7.39,0,0,0-9.26.94L6.13,39.5A7.71,7.71,0,0,0,3.8,44.23a7.37,7.37,0,0,0,8,8,7.71,7.71,0,0,0,4.73-2.33l12.4-12.39a2,2,0,0,1,2.49-.28,1.89,1.89,0,0,1,.25,2.88L19.27,52.52A11.59,11.59,0,0,1,11.62,56Z"/><path class="a" d="M32.24,34.93a11.13,11.13,0,0,1-7.88-3.25A1.89,1.89,0,1,1,27,29a7.38,7.38,0,0,0,10.42,0L50.11,16.35A7.36,7.36,0,1,0,39.7,5.93L27,18.59a1.89,1.89,0,0,1-2.67-2.67L37,3.26A11.14,11.14,0,0,1,52.78,19L40.12,31.68A11.11,11.11,0,0,1,32.24,34.93Z"/></svg>