<svg xmlns="http://www.w3.org/2000/svg" xmlns:xlink="http://www.w3.org/1999/xlink" viewBox="0 0 277.72 366.26"><defs><style>.a{opacity:0.75;}.b{fill:url(#a);}.c{fill:url(#b);}.d{fill:url(#c);}.e{fill:url(#d);}.f{fill:url(#e);}.g{fill:url(#f);}.h{fill:url(#g);}.i{fill:#1a1a1a;}</style><linearGradient id="a" y1="155.24" x2="277.72" y2="155.24" gradientUnits="userSpaceOnUse"><stop offset="0" stop-color="#185a9d"/><stop offset="1" stop-color="#43cea2"/></linearGradient><linearGradient id="b" x1="184.05" y1="277.71" x2="184.05" y2="210.66" xlink:href="#a"/><linearGradient id="c" x1="93.67" y1="276.57" x2="93.67" y2="211.81" xlink:href="#a"/><linearGradient id="d" x1="168.02" y1="192.62" x2="168.02" y2="145.47" xlink:href="#a"/><linearGradient id="e" x1="110.26" y1="191.47" x2="110.26" y2="146.62" xlink:href="#a"/><linearGradient id="f" x1="59.65" y1="238.18" x2="217.5" y2="147.05" xlink:href="#a"/><linearGradient id="g" x1="114.66" y1="41.4" x2="162.48" y2="13.8" xlink:href="#a"/></defs><title>news_1</title><g class="a"><path class="b" d="M8.62,290.94A8.52,8.52,0,0,1,4.7,290,8.62,8.62,0,0,1,1,278.39L130.89,24.25a8.61,8.61,0,0,1,7.67-4.7h0a8.62,8.62,0,0,1,7.67,4.68L276.76,277.79a8.63,8.63,0,1,1-15.34,7.9L138.6,47.07,16.31,286.24A8.64,8.64,0,0,1,8.62,290.94Z"/><path class="c" d="M141.45,277.71a8.63,8.63,0,0,1-4.36-16.07l85.22-49.8a8.63,8.63,0,1,1,8.7,14.9l-85.21,49.8A8.69,8.69,0,0,1,141.45,277.71Z"/><path class="d" d="M134.54,276.57a8.65,8.65,0,0,1-4.33-1.17L48.47,227.9A8.63,8.63,0,1,1,57.13,213l81.75,47.5a8.63,8.63,0,0,1-4.34,16.09Z"/><path class="e" d="M141.45,192.62a8.62,8.62,0,0,1-4.23-16.14l53.15-29.9a8.62,8.62,0,1,1,8.46,15l-53.16,29.9A8.56,8.56,0,0,1,141.45,192.62Z"/><path class="f" d="M134.54,191.47a8.49,8.49,0,0,1-4.25-1.13l-48.58-27.6a8.62,8.62,0,1,1,8.52-15l48.58,27.59a8.63,8.63,0,0,1-4.27,16.13Z"/><path class="g" d="M138.57,366.26a8.62,8.62,0,0,1-8.62-8.62V27.6a8.63,8.63,0,1,1,17.25,0v330A8.63,8.63,0,0,1,138.57,366.26Z"/><circle class="h" cx="138.57" cy="27.6" r="27.6"/></g><path class="i" d="M106.66,210.74A27.24,27.24,0,1,1,133.9,183.5v3l-48.29.08a21.28,21.28,0,0,0,40.92,4.56l5.57,2.14A27.4,27.4,0,0,1,106.66,210.74Zm0-48.5A21.29,21.29,0,0,0,85.6,180.59l42.12-.07A21.29,21.29,0,0,0,106.66,162.24Z"/><path class="i" d="M241.11,210.74c-9.68,0-18.13-3.81-22.61-10.2l4.88-3.43c3.32,4.73,10.11,7.66,17.73,7.66s13.22-5.45,13.22-9.13c0-2.38,0-6-15.74-9.82-4.77-1.17-19.27-4.71-18.17-15.92.68-6.84,7.25-14.2,20.09-14.2a23.88,23.88,0,0,1,19.76,9.83l-5,3.24a17.89,17.89,0,0,0-14.74-7.1c-10.48,0-13.82,5.54-14.15,8.82-.16,1.65-.59,6,13.64,9.53,16.91,4.13,20.3,9,20.3,15.62C260.3,202.77,252.1,210.74,241.11,210.74Z"/><path class="i" d="M69.8,210.74h-6V183.5c0-11.72-9.07-21.26-20.22-21.26s-20.23,9.54-20.23,21.26v27.24h-6V155.52h6v10.69a25.78,25.78,0,0,1,20.23-9.94c14.44,0,26.19,12.21,26.19,27.23Z"/><polygon class="i" points="206.19 156.34 192.07 197.17 177.94 156.34 172.26 156.34 158.13 197.17 144.01 156.34 137.73 156.34 155.29 207.76 160.97 207.76 175.1 165.51 189.23 207.76 194.91 207.76 212.47 156.34 206.19 156.34"/></svg>