<svg xmlns="http://www.w3.org/2000/svg" xmlns:xlink="http://www.w3.org/1999/xlink" viewBox="0 0 877.88 740.38"><defs><style>.a{fill:url(#a);}.b{isolation:isolate;}.c{fill:url(#b);}.d{fill:url(#c);}.e{fill:url(#d);}.f{fill:url(#e);}.g{fill:url(#f);}.h{fill:url(#g);}.i{opacity:0.75;}.j{fill:url(#h);}.k{fill:url(#i);}.l{fill:url(#j);}.m{fill:url(#k);}.n{fill:url(#l);}.o{fill:url(#m);}.p{fill:#1a1a1a;}</style><linearGradient id="a" x1="250.51" y1="235.97" x2="668.62" y2="235.97" gradientUnits="userSpaceOnUse"><stop offset="0" stop-color="#185a9d"/><stop offset="1" stop-color="#43cea2"/></linearGradient><linearGradient id="b" x1="250.51" y1="260.01" x2="400.07" y2="260.01" xlink:href="#a"/><linearGradient id="c" x1="341.4" y1="229.56" x2="455.73" y2="229.56" xlink:href="#a"/><linearGradient id="d" x1="395.92" y1="221.18" x2="525.75" y2="221.18" xlink:href="#a"/><linearGradient id="e" x1="467.08" y1="141.01" x2="589.56" y2="141.01" xlink:href="#a"/><linearGradient id="f" x1="530.28" y1="235.97" x2="668.62" y2="235.97" xlink:href="#a"/><linearGradient id="g" x1="250.51" y1="253.21" x2="609.27" y2="253.21" xlink:href="#a"/><linearGradient id="h" x1="250.51" y1="255.57" x2="609.27" y2="255.57" xlink:href="#a"/><linearGradient id="i" x1="201.17" y1="517.07" x2="272.11" y2="446.13" xlink:href="#a"/><linearGradient id="j" x1="222.55" y1="538.44" x2="250.89" y2="510.09" xlink:href="#a"/><linearGradient id="k" x1="208.91" y1="499.1" x2="264.16" y2="443.85" xlink:href="#a"/><linearGradient id="l" x1="220.73" y1="457.76" x2="252.24" y2="426.25" gradientTransform="translate(1.25 -0.67) rotate(0.16)" xlink:href="#a"/><linearGradient id="m" x1="223.99" y1="431.11" x2="248.98" y2="406.12" xlink:href="#a"/></defs><title>page-not-found_1</title><polygon class="a" points="668.62 437.44 589.62 0 530.28 34.49 486.47 199.7 455.26 167 395.92 201.49 367.78 246.11 309.86 230.99 250.51 265.48 341.4 290.39 400.74 255.9 419.01 226.93 467.08 277.31 526.43 242.82 550.69 151.3 609.27 471.93 668.62 437.44"/><g class="b"><polygon class="c" points="250.51 265.48 309.86 230.99 400.06 254.53 340.72 289.02 250.51 265.48"/><polygon class="d" points="396.38 203.21 455.73 168.72 400.74 255.9 341.4 290.39 396.38 203.21"/><polygon class="e" points="395.92 201.49 455.26 167 525.75 240.87 466.4 275.36 395.92 201.49"/><polygon class="f" points="530.21 39.2 589.55 4.71 526.43 242.82 467.08 277.31 530.21 39.2"/><polygon class="g" points="530.28 34.49 589.62 0 668.62 437.44 609.27 471.93 530.28 34.49"/><polygon class="h" points="530.28 34.49 609.27 471.93 530.21 39.2 467.08 277.31 396.38 203.21 341.4 290.39 250.51 265.48 340.72 289.02 395.92 201.49 466.4 275.36 530.28 34.49"/></g><g class="i"><polygon class="j" points="609.27 471.93 530.21 39.2 467.08 277.31 396.38 203.21 341.4 290.39 250.51 265.48 609.27 471.93"/></g><path class="k" d="M256.12,431.05c-10.4-6.26-27.63-6.44-38.48-.39-6.1,3.4-8.88,8-8.3,12.57v0l0,.2,9.78,64s0,.08,0,.12a6.22,6.22,0,0,0,.42,1.42l.06.16a8,8,0,0,0,.85,1.41l.2.26a10.28,10.28,0,0,0,1.26,1.31l.25.21A14.58,14.58,0,0,0,224,513.6a17.84,17.84,0,0,0,2.63,1.29c.28.11.58.2.87.29l.08,26.86a3.28,3.28,0,0,0,.08.52c0,.14,0,.28.07.43a5.12,5.12,0,0,0,.28.58,3.6,3.6,0,0,0,.2.39,4.92,4.92,0,0,0,.53.61,2.61,2.61,0,0,0,.27.31,6.77,6.77,0,0,0,1.13.84,10,10,0,0,0,1.47.71l0,0c.36.14.73.26,1.11.37l.27.07.28.06.42.1.9.16h.15l.18,0c.18,0,.37,0,.56.06s.6,0,.9,0h.94l1-.07h0c.39,0,.77-.1,1.15-.17l.27-.06.8-.2c.19-.05.39-.08.57-.14l.19-.08a10.16,10.16,0,0,0,1.81-.77l.44-.26c.15-.1.26-.21.4-.31s.27-.17.38-.27.08-.09.13-.13.11-.07.15-.11a5.14,5.14,0,0,0,.55-.61l0,0,0,0a.53.53,0,0,0,.06-.1,2.12,2.12,0,0,0,.24-.37,2.72,2.72,0,0,0,.21-.46l0,0v0s0,0,0,0l0,0c0-.14.08-.28.11-.43a1.93,1.93,0,0,0,0-.42s0,0,0-.06v-6.2c0-3.74,0-7.68,0-11.65l0-9.09.37-.13a18.8,18.8,0,0,0,2.57-1.17c.47-.26.9-.54,1.31-.82l.08,0c.17-.12.31-.24.46-.36l.15-.11.19-.14.18-.15c.17-.14.31-.29.46-.44s.31-.28.44-.42l.06-.06a1.58,1.58,0,0,0,.12-.15c.06-.06.11-.13.17-.2l.18-.22a7,7,0,0,0,.42-.58l.13-.17.08-.16q.16-.29.3-.57a2.06,2.06,0,0,0,.12-.26l.05-.1c0-.05.06-.1.08-.16a0,0,0,0,1,0,0,6.79,6.79,0,0,0,.31-1.13.31.31,0,0,0,0-.08.69.69,0,0,0,0-.13l9.42-64.06s0,.07,0,.11C264.28,439,261.81,434.48,256.12,431.05Zm-10.54,25.78h0Zm-7.67.9c-.58,0-1.15,0-1.73,0C236.76,457.76,237.33,457.75,237.91,457.73Zm-10.58-.88-.7-.15Zm-4.52-1.2-.29-.1Zm-4.16-1.71c-.6-.3-1.19-.62-1.75-.95C217.46,453.32,218.05,453.64,218.65,453.94Zm-9.3-10.66c0,.09,0,.19.05.29a.14.14,0,0,0,0-.07Zm3.28,6.36a.46.46,0,0,0,.07.07A.46.46,0,0,1,212.63,449.64Zm-2.5-3.66a1,1,0,0,0,0,.1A1,1,0,0,1,210.13,446Zm.64,1.24.1.15Zm.86,1.26.08.09Zm3.78,3.53-.22-.15Zm-1.43-1.1-.21-.18Zm35.56,4.88.66-.21Zm4.14-1.62c.55-.26,1.11-.53,1.63-.82C254.79,453.64,254.24,453.91,253.68,454.17Zm8.4-6.85s0,0,0,0l0,0,.08-.13Z"/><path class="l" d="M246,542v-6.1c0-3.74,0-7.68,0-11.65l0-11.64c0-2.12,0-4.18,0-6.1,0-1.33-.85-2.65-2.56-3.68a9.52,9.52,0,0,0-1.47-.71l0,0c-.36-.14-.73-.26-1.12-.37l-.27-.06-.27-.07-.42-.1c-.3-.06-.6-.11-.91-.15l-.15,0-.17,0-.57-.06c-.3,0-.6,0-.9,0h-.93l-1,.07h0c-.39,0-.78.1-1.16.17l-.27.06-.8.2c-.19.05-.38.08-.57.14l-.19.08a10.48,10.48,0,0,0-1.81.77l-.44.26c-.16.11-.28.23-.43.34a4.67,4.67,0,0,0-.48.37s-.11.07-.15.11a6.18,6.18,0,0,0-.55.61l0,.08a.61.61,0,0,0-.07.1,2.92,2.92,0,0,0-.24.37,4.9,4.9,0,0,0-.24.52.08.08,0,0,1,0,0s0,0,0,.05a2.75,2.75,0,0,0-.17.95v.06l.1,35.49a3.28,3.28,0,0,0,.08.52c0,.14,0,.28.07.43a5.12,5.12,0,0,0,.28.58,3.6,3.6,0,0,0,.2.39,4.92,4.92,0,0,0,.53.61,2.61,2.61,0,0,0,.27.31,6.77,6.77,0,0,0,1.13.84,10,10,0,0,0,1.47.71l0,0c.36.14.73.26,1.11.37l.27.07.28.06.42.1c.29.06.6.11.9.15l.15,0,.18,0c.18,0,.37,0,.56.06s.6,0,.9,0h.94l1-.07h0c.39,0,.77-.1,1.15-.17l.27-.06.8-.2c.19-.05.39-.08.57-.14l.19-.08a10.16,10.16,0,0,0,1.81-.77l.44-.26c.15-.1.26-.21.4-.31s.27-.17.38-.27.08-.09.13-.13.11-.07.15-.11a5.14,5.14,0,0,0,.55-.61l0,0,0,0a.53.53,0,0,0,.06-.1,2.12,2.12,0,0,0,.24-.37,2.72,2.72,0,0,0,.21-.46l0,0v0s0,0,0,0l0,0c0-.14.08-.28.11-.43a1.93,1.93,0,0,0,0-.42s0,0,0-.06V542Z"/><path class="m" d="M263.5,443.73a9.19,9.19,0,0,1-.39,1.43l-.18.48a12.62,12.62,0,0,1-.85,1.68s0,0,0,0a13.54,13.54,0,0,1-1.4,1.81c-.14.16-.27.31-.42.46s-.49.49-.76.74l-.6.54c-.29.24-.6.48-.92.71s-.43.33-.66.49c-.62.42-1.27.84-2,1.23a28.1,28.1,0,0,1-3.08,1.46l-.68.28a33.48,33.48,0,0,1-3.25,1.09l-.46.12a39.27,39.27,0,0,1-4.54.95l-.62.08c-1,.14-1.92.24-2.89.31l-.82.06c-1,.05-2.08.09-3.12.07h-.28c-.93,0-1.86-.06-2.78-.13l-.91-.09c-.79-.07-1.58-.17-2.36-.29l-.83-.12c-1.15-.2-2.29-.44-3.39-.73l-.57-.16a33,33,0,0,1-3.9-1.3l-.32-.14a27.59,27.59,0,0,1-3.69-1.84c-4.44-2.67-6.92-6-7.46-9.45l0-.29,0,.24,9.78,64s0,.08,0,.12a6.22,6.22,0,0,0,.42,1.42l.06.16a8,8,0,0,0,.85,1.41l.2.26a10.28,10.28,0,0,0,1.26,1.31l.25.21A14.58,14.58,0,0,0,224,513.6a17.84,17.84,0,0,0,2.63,1.29c.31.13.65.21,1,.33.57.19,1.12.41,1.72.57l.24.05.78.16c.49.12,1,.24,1.5.33.25,0,.51,0,.76.09l.76.09.72.09c.73.06,1.45.1,2.18.11h.17c.69,0,1.39,0,2.09-.05.24,0,.47,0,.72-.07l.92-.1c.28,0,.57-.05.84-.09s.64-.14,1-.2c.55-.1,1.08-.21,1.61-.34.22-.05.44-.08.65-.14.42-.11.8-.26,1.2-.4s.59-.18.87-.29a18.8,18.8,0,0,0,2.57-1.17c.47-.26.9-.54,1.31-.82l.08,0c.17-.12.31-.24.46-.36l.15-.11.19-.14.18-.15c.17-.14.31-.29.46-.44s.31-.28.44-.42l.06-.06a1.58,1.58,0,0,0,.12-.15c.06-.06.11-.13.17-.2l.18-.22a7,7,0,0,0,.42-.58l.13-.17.08-.16q.16-.29.3-.57a2.06,2.06,0,0,0,.12-.26l.05-.1c0-.05.06-.1.08-.16a0,0,0,0,1,0,0,6.79,6.79,0,0,0,.31-1.13.31.31,0,0,0,0-.08.69.69,0,0,0,0-.13l9.42-64.06C263.58,443.44,263.53,443.59,263.5,443.73Z"/><g class="b"><ellipse class="n" cx="236.48" cy="442" rx="27.22" ry="15.76" transform="translate(-1.25 0.67) rotate(-0.16)"/></g><circle class="o" cx="236.48" cy="418.62" r="17.67"/><path class="p" d="M257.49,711.3a32,32,0,1,1,32-32v3.5l-56.67.09a25,25,0,0,0,48,5.36l6.54,2.51A32.15,32.15,0,0,1,257.49,711.3Zm0-56.93a25,25,0,0,0-24.73,21.54l49.45-.07A25,25,0,0,0,257.49,654.37Z"/><path class="p" d="M565.26,711.3h-7V638a16,16,0,0,1,16-16h5v7h-5a9,9,0,0,0-9,9Z"/><path class="p" d="M106.91,711.3a32,32,0,1,1,25-51.92V646.49h7v32.84A32,32,0,0,1,106.91,711.3Zm0-56.93a25,25,0,1,0,25,25A25,25,0,0,0,106.91,654.37Z"/><path class="p" d="M437.79,711.3a32,32,0,1,1,32-32A32,32,0,0,1,437.79,711.3Zm0-56.93a25,25,0,1,0,25,25A25,25,0,0,0,437.79,654.37Z"/><path class="p" d="M619.11,711.3a32,32,0,1,1,32-32A32,32,0,0,1,619.11,711.3Zm0-56.93a25,25,0,1,0,25,25A25,25,0,0,0,619.11,654.37Z"/><path class="p" d="M392.51,711.3h-7v-32c0-13.76-10.64-25-23.73-25s-23.74,11.2-23.74,25v32h-7V646.49h7V659a30.28,30.28,0,0,1,23.74-11.67c17,0,30.74,14.34,30.74,32Z"/><path class="p" d="M801.64,711.3h-7v-32c0-13.76-10.65-25-23.73-25s-23.74,11.2-23.74,25v32h-7V646.49h7V659a30.26,30.26,0,0,1,23.74-11.67c17,0,30.74,14.34,30.74,32Z"/><path class="p" d="M510.66,711.3a21,21,0,0,1-21-21V632.83h7v57.45a14,14,0,0,0,14,14Z"/><rect class="p" x="475.63" y="646.84" width="35.03" height="7.01"/><rect class="p" x="544.24" y="646.84" width="35.03" height="7.01"/><path class="p" d="M7,736.7H0V679.33a32,32,0,1,1,7,19.95Zm0-57.37a25,25,0,1,0,25-25A25,25,0,0,0,7,679.33Z"/><path class="p" d="M726.37,711.74h-7V699.19a30.26,30.26,0,0,1-23.73,11.67c-17,0-30.75-14.34-30.75-32v-32h7v32c0,13.76,10.65,25,23.74,25s23.73-11.2,23.73-25v-32h7Z"/><path class="p" d="M181.85,711.3a32,32,0,1,1,25-51.92V646.49h7v32.84A32,32,0,0,1,181.85,711.3Zm0-56.93a25,25,0,1,0,25,25A25,25,0,0,0,181.85,654.37Z"/><path class="p" d="M181.85,740.38a32.07,32.07,0,0,1-29.15-18.81l6.39-2.89a25,25,0,0,0,47.71-10.27V675.57h7v32.84A32,32,0,0,1,181.85,740.38Z"/><path class="p" d="M845.91,709.72a32,32,0,1,1,25-51.91V620.39h7v57.37A32,32,0,0,1,845.91,709.72Zm0-56.92a25,25,0,1,0,25,25A25,25,0,0,0,845.91,652.8Z"/></svg>