<svg xmlns="http://www.w3.org/2000/svg" xmlns:xlink="http://www.w3.org/1999/xlink" viewBox="0 0 327.95 366.59"><defs><style>.a{opacity:0.75;}.b{fill:url(#a);}.c{fill:url(#b);}.d{fill:#1a1a1a;}</style><linearGradient id="a" x1="61.18" y1="326.72" x2="264.85" y2="123.05" gradientUnits="userSpaceOnUse"><stop offset="0" stop-color="#185a9d"/><stop offset="1" stop-color="#43cea2"/></linearGradient><linearGradient id="b" x1="131.63" y1="87.95" x2="198.9" y2="20.67" xlink:href="#a"/></defs><title>people-mobile</title><g class="a"><path class="b" d="M158.23,92.38c5-1.72,39.35-13.38,63.62-4.29,5.71,2.13,14,5.36,21.47,13.5,10.19,11.16,16,28.52,15.61,90.38-.34,51.14.16,76.53-4.5,88.48-19.66,50.34-76.36,77.92-86.68,81.47s-67.58,15.22-90.28-20.54c-5.38-8.49-6.67-33.6-10.57-83.29-4.71-60.09-.25-81,8.92-98.82,6.69-13,14.59-21.83,20-27.79C118.88,106.1,153.23,94.1,158.23,92.38Z"/><path class="c" d="M182,106.85c-20.11,5.36-43.07-10-54.08-22.89-2.23-2.62-20.63-25-10.23-50.88C122.83,20.27,137.41.6,160.07,0c28.47-.74,44.07,29.33,45.3,31.8C219,59.16,208.66,99.73,182,106.85Z"/></g><path class="d" d="M6,232H0V183.29a27.17,27.17,0,1,1,6,16.94Zm0-48.69a21.19,21.19,0,1,0,21.18-21.18A21.2,21.2,0,0,0,6,183.29Z"/><path class="d" d="M197.28,232h-5.95V183.29a27.17,27.17,0,1,1,5.95,16.94Zm0-48.69a21.18,21.18,0,1,0,21.18-21.18A21.2,21.2,0,0,0,197.28,183.29Z"/><path class="d" d="M90.35,210.43a27.14,27.14,0,1,1,27.13-27.14v3l-48.09.08a21.19,21.19,0,0,0,40.75,4.54l5.55,2.14A27.31,27.31,0,0,1,90.35,210.43Zm0-48.32a21.22,21.22,0,0,0-21,18.28l42-.06A21.22,21.22,0,0,0,90.35,162.11Z"/><path class="d" d="M300.82,210.43A27.14,27.14,0,1,1,328,183.29v3l-48.09.08a21.19,21.19,0,0,0,40.75,4.54l5.55,2.14A27.31,27.31,0,0,1,300.82,210.43Zm0-48.32a21.22,21.22,0,0,0-21,18.28l42-.06A21.22,21.22,0,0,0,300.82,162.11Z"/><path class="d" d="M154.33,210.43a27.14,27.14,0,1,1,27.13-27.14A27.16,27.16,0,0,1,154.33,210.43Zm0-48.32a21.19,21.19,0,1,0,21.19,21.18A21.2,21.2,0,0,0,154.33,162.11Z"/><path class="d" d="M268.51,210.43A13.58,13.58,0,0,1,255,196.86V134.61h5.94v62.25a7.63,7.63,0,0,0,7.62,7.62,8.38,8.38,0,0,0,1.58-.16l1.21,5.82A13.69,13.69,0,0,1,268.51,210.43Z"/></svg>