<svg xmlns="http://www.w3.org/2000/svg" xmlns:xlink="http://www.w3.org/1999/xlink" viewBox="0 0 382.71 366.59"><defs><style>.a{opacity:0.75;}.b{fill:url(#a);}.c{fill:url(#b);}.d{fill:#1a1a1a;}</style><linearGradient id="a" x1="-3.82" y1="326.72" x2="199.85" y2="123.05" gradientUnits="userSpaceOnUse"><stop offset="0" stop-color="#185a9d"/><stop offset="1" stop-color="#43cea2"/></linearGradient><linearGradient id="b" x1="66.63" y1="87.95" x2="133.9" y2="20.67" xlink:href="#a"/></defs><title>people</title><g class="a"><path class="b" d="M93.22,92.38c5-1.72,39.36-13.38,63.62-4.29,5.71,2.13,14,5.36,21.48,13.5,10.19,11.16,16,28.52,15.61,90.38-.34,51.14.15,76.53-4.51,88.48-19.65,50.34-76.35,77.92-86.67,81.47s-67.58,15.22-90.28-20.54c-5.38-8.49-6.68-33.6-10.58-83.29-4.7-60.09-.24-81,8.92-98.82,6.7-13,14.6-21.83,20-27.79C53.88,106.1,88.23,94.1,93.22,92.38Z"/><path class="c" d="M117,106.85c-20.11,5.36-43.07-10-54.07-22.89-2.23-2.62-20.64-25-10.23-50.88C57.83,20.27,72.41.6,95.06,0c28.48-.74,44.08,29.33,45.31,31.8C154,59.16,143.66,99.73,117,106.85Z"/></g><path class="d" d="M102,224.23H97V183.3a22.84,22.84,0,1,1,5,14.23Zm0-40.93a17.82,17.82,0,1,0,17.82-17.82A17.83,17.83,0,0,0,102,183.3Z"/><path class="d" d="M262.84,224.23h-5V183.3a22.84,22.84,0,1,1,5,14.23Zm0-40.93a17.81,17.81,0,1,0,17.81-17.82A17.83,17.83,0,0,0,262.84,183.3Z"/><path class="d" d="M172.94,206.11a22.82,22.82,0,1,1,22.81-22.81v2.49l-40.44.06a17.82,17.82,0,0,0,34.27,3.83l4.66,1.79A23,23,0,0,1,172.94,206.11Zm0-40.63a17.83,17.83,0,0,0-17.64,15.37l35.28,0A17.85,17.85,0,0,0,172.94,165.48Z"/><path class="d" d="M349.9,206.11a22.82,22.82,0,1,1,22.81-22.81v2.49l-40.44.06a17.81,17.81,0,0,0,34.26,3.83l4.67,1.79A23,23,0,0,1,349.9,206.11Zm0-40.63a17.85,17.85,0,0,0-17.65,15.37l35.29,0A17.85,17.85,0,0,0,349.9,165.48Z"/><path class="d" d="M226.73,206.11a22.82,22.82,0,1,1,22.82-22.81A22.85,22.85,0,0,1,226.73,206.11Zm0-40.63a17.82,17.82,0,1,0,17.82,17.82A17.83,17.83,0,0,0,226.73,165.48Z"/><path class="d" d="M322.73,206.11a11.42,11.42,0,0,1-11.4-11.41V142.36h5V194.7a6.41,6.41,0,0,0,6.4,6.41,6.6,6.6,0,0,0,1.33-.14l1,4.89A10.91,10.91,0,0,1,322.73,206.11Z"/></svg>