<svg xmlns="http://www.w3.org/2000/svg" xmlns:xlink="http://www.w3.org/1999/xlink" viewBox="0 0 433.56 376.07"><defs><style>.a{fill:url(#a);}.b{isolation:isolate;}.c{fill:url(#b);}.d{fill:url(#c);}.e{fill:url(#d);}.f{fill:#1a1a1a;}</style><linearGradient id="a" x1="100.28" y1="123.91" x2="331" y2="257.12" gradientUnits="userSpaceOnUse"><stop offset="0" stop-color="#5384b6"/><stop offset="1" stop-color="#71d7b9"/></linearGradient><linearGradient id="b" x1="138.55" y1="196.98" x2="324.72" y2="196.98" xlink:href="#a"/><linearGradient id="c" x1="98.75" y1="244.52" x2="153.72" y2="239.71" xlink:href="#a"/><linearGradient id="d" x1="154.74" y1="29.57" x2="277.25" y2="100.3" xlink:href="#a"/></defs><title>publications-mobile</title><path class="a" d="M324.7,18a.7.7,0,0,0-.41-.68,2,2,0,0,0-.85-.23,44.11,44.11,0,0,1-18.12-5.92c-6-3.46-9.69-7.41-10.28-10.48a.73.73,0,0,0-.4-.49,2.26,2.26,0,0,0-2,0L126.34,96.87c-3.32,1.93-3.17,3.83-3,5.35.09,1,.16,1.89-.84,2.51a6,6,0,0,1-3,.65c-1,0-1.86,0-2.72,0-2.55,0-4.39,0-5.56.63a2.93,2.93,0,0,0-1.55,3c0-.15,0-.31,0-.45l-.71,251.15c0,2.9,3.67,7.09,9.83,10.65.51.3,1,.58,1.55.85.17.1.35.18.53.27l1.06.53.63.29,1,.43.69.29.69.28.2.08c.61.23,1.22.46,1.84.67l.08,0c.64.22,1.27.41,1.9.59l.17.06.82.21.5.14c.5.12,1,.24,1.49.34h0c.62.13,1.22.23,1.81.32l.19,0,.44.05.85.1.26,0,.49,0,.54,0h1.24q.48,0,.93-.06h0c.31,0,.6-.07.88-.12l.23-.06a7.67,7.67,0,0,0,.76-.19l.17,0,.13-.06a5.22,5.22,0,0,0,.86-.39l0,0,0,0a1.54,1.54,0,0,0,.29-.21l0,0,.08-.09.09-.09,0-.05a1,1,0,0,0,.08-.11l.06-.09s0,0,0,0,0-.09.07-.13,0-.08,0-.12v0l0-.09c0-.08,0-.16.07-.25s0,0,0,0v-.05a4.18,4.18,0,0,0,.07-.64v0c0-.07,0-.14,0-.22v-2.66c0-.09,0-.19,0-.27l0-.1a1.38,1.38,0,0,1,.18-.41l0-.06a2.11,2.11,0,0,1,.31-.36l.08-.05a2,2,0,0,1,.39-.28,4,4,0,0,1,.52-.21l.17-.06.4-.1.2,0,.3,0,.24,0a4.58,4.58,0,0,1,.53,0h2l1.14,0h.11c.38,0,.77,0,1.16,0h.11c.4,0,.81,0,1.23-.08h0c.41,0,.81-.09,1.23-.17h0l.08,0,.66-.14.21-.05.75-.21h0l.35-.13.26-.09.4-.16.22-.09.44-.21.19-.09.62-.34,166.27-96.62h0l.08-.06.1-.07h0l.09-.09v0l0,0,0,0a.2.2,0,0,0,0-.08h0v0a.07.07,0,0,0,0-.05.19.19,0,0,0,0-.08h0L324.72,18A.24.24,0,0,1,324.7,18Zm0,.08s0,.05,0,.08a.42.42,0,0,0,0-.1ZM146.05,117l-.3,0Zm-2,.72a.24.24,0,0,0-.08.06A.24.24,0,0,1,144.07,117.72Zm-.77,4.9h0s0-.09,0-.14v0S143.31,122.59,143.3,122.62Zm-.11.36v0c0-.07,0-.14.07-.21a.14.14,0,0,0,0,.07A.42.42,0,0,1,143.19,123Zm-.19.37h0a1.71,1.71,0,0,0,.13-.23l-.06.13Zm-.21.26-.06,0a1.8,1.8,0,0,0,.19-.2l0,.05Zm-.32.26-.09.06a.71.71,0,0,1-.09.07h0C142.36,124,142.41,123.91,142.47,123.87Zm-26.12-6.56c-.4-.28-.79-.56-1.15-.85C115.56,116.75,116,117,116.35,117.31Zm1.29.88-1-.65Zm-7-6.52c-.17-.27-.31-.54-.44-.8C110.3,111.13,110.44,111.4,110.61,111.67Zm.56.82c-.19-.26-.36-.51-.52-.76C110.81,112,111,112.23,111.17,112.49Zm-1.4-2.62a4.14,4.14,0,0,1-.17-.72A4.14,4.14,0,0,0,109.77,109.87Zm.3.78c-.09-.19-.17-.39-.24-.58C109.9,110.26,110,110.46,110.07,110.65Zm2,2.95c.26.28.53.57.81.85C112.61,114.17,112.34,113.88,112.08,113.6Zm-.72-.86.54.65Zm3.65,3.57c-.31-.24-.6-.48-.88-.72C114.41,115.83,114.7,116.07,115,116.31Zm-1.17-1-.76-.7Zm5.55,3.93c-.47-.27-.93-.55-1.37-.83.44.28.9.56,1.37.83s1,.58,1.55.86h0C120.42,119.84,119.9,119.56,119.39,119.26Zm2.09,1.12h0l.79.4Zm1.69.82h0l.4.18Zm1.65.72h0l.89.36h0Zm2.73,1h0l.09,0h0Zm2.29.71.69.19h0Zm4.48,1,.46.06-.46-.06Zm1.48.18h0l.75.06h0Zm2.47.09h0Zm5.17-6.21h0l0-.1h0Zm.21-.51h0l0-.06h0Zm.81-.75a4,4,0,0,1,.52-.21A4,4,0,0,0,144.46,117.44Zm.69-.26h0a2.6,2.6,0,0,1,.4-.1A2.6,2.6,0,0,0,145.15,117.18Zm1.14-.21.52,0-.52,0Zm.63,0h0c.27,0,.55,0,.83,0C147.47,116.92,147.19,116.92,146.92,116.93Zm1.06,0h0Zm2,0h0Zm1.28,0h-.14l.48,0h-.34Zm1.33-.09-.26,0,.53,0-.25,0Zm1.34-.19-.1,0-.3,0,.67-.12Zm1.62-.4q-.37.12-.75.21l-.2.05-.1,0a11,11,0,0,0,1.09-.29h0Zm1.05-.39-.4.16-.25.09-.34.12c.4-.13.81-.28,1.22-.46h0Zm.67-.3-.43.2c.41-.18.82-.39,1.23-.62l-.62.33ZM324.3,18.54l.11-.08,0,0Zm.23-.18.08-.1h0Z"/><g class="b"><g class="b"><path class="c" d="M324.69,18.1v0a.83.83,0,0,1-.07.13v0a.74.74,0,0,1-.12.13l-.1.08-.09.06L158,115.16h0l-.62.34-.18.09-.45.21-.22.09-.39.16-.26.09-.36.13h0q-.37.12-.75.21l-.2.05-.67.14-.1,0c-.41.08-.82.13-1.22.17h0c-.42,0-.83.07-1.23.08h-1.38l-1.14,0h-1.05c-.28,0-.56,0-.83,0h-.1c-.18,0-.36,0-.53,0h-.08l-.16,0-.3,0h-.1l-.1,0a2.6,2.6,0,0,0-.4.1.53.53,0,0,0-.12,0l-.05,0a4,4,0,0,0-.52.21l-.11.07a1.46,1.46,0,0,0-.28.21.24.24,0,0,0-.08.06h0a1.45,1.45,0,0,0-.21.22l-.08.12,0,.06,0,0a1.23,1.23,0,0,0-.12.26.38.38,0,0,0,0,.1l0,.1s0,.08,0,.12,0,.25,0,.38,0,.16,0,.23,0,.25,0,.37v2.52a2.06,2.06,0,0,1,0,.26,2.38,2.38,0,0,1-.11.38,1.31,1.31,0,0,1-.12.27l-.16.24-.2.22a3,3,0,0,1-.39.29l0,0a5,5,0,0,1-1,.44,7.43,7.43,0,0,1-1.15.29c-.29,0-.58.09-.89.12L138.55,376c.31,0,.6-.07.88-.12a8.54,8.54,0,0,0,1.16-.29,5.3,5.3,0,0,0,1-.45l0,0a2.34,2.34,0,0,0,.38-.28,1.51,1.51,0,0,0,.21-.23,1.14,1.14,0,0,0,.15-.23,1.66,1.66,0,0,0,.13-.27,2.5,2.5,0,0,0,.11-.39,4,4,0,0,0,.07-.72c0-.07,0-.14,0-.22v-2.66c0-.09,0-.19,0-.27l0-.1a1.38,1.38,0,0,1,.18-.41l0-.06a2.11,2.11,0,0,1,.31-.36l.08-.05a2,2,0,0,1,.39-.28,4,4,0,0,1,.52-.21l.17-.06.4-.1.2,0,.3,0,.24,0a4.58,4.58,0,0,1,.53,0h2l1.14,0h.11c.38,0,.77,0,1.16,0h.11c.4,0,.81,0,1.23-.08h0c.41,0,.81-.09,1.23-.17h0l.08,0,.66-.14.21-.05.75-.21h0l.35-.13.26-.09.4-.16.22-.09.44-.21.19-.09.62-.34h0l166.27-96.62h0l.08-.06.1-.07h0l.09-.09v0l0,0,0,0a.2.2,0,0,0,0-.08h0v0a.07.07,0,0,0,0-.05.19.19,0,0,0,0-.08h0L324.72,18A.32.32,0,0,1,324.69,18.1Z"/><path class="d" d="M142.29,124a8.69,8.69,0,0,1-4,.91,2.43,2.43,0,0,1-.27,0c-.3,0-.6,0-.91,0l-.54,0-.75-.06-.84-.1-.64-.08c-.59-.09-1.19-.19-1.81-.32s-1-.22-1.49-.34l-.5-.13-1-.27c-.63-.19-1.26-.38-1.9-.6l-.08,0c-.61-.21-1.23-.43-1.84-.67l-.89-.36-.69-.29c-.32-.13-.64-.28-1-.43l-.64-.29c-.36-.17-.71-.35-1-.53l-.54-.26c-.52-.28-1-.56-1.55-.86-6.16-3.55-9.84-7.75-9.83-10.65l-.71,251.15c0,2.9,3.67,7.09,9.83,10.65.51.3,1,.58,1.55.85.17.1.35.18.53.27l1.06.53.63.29,1,.43.69.29.69.28.2.08c.61.23,1.22.46,1.84.67l.08,0c.64.22,1.27.41,1.9.59l.17.06.82.21.5.14c.5.12,1,.24,1.49.34h0c.62.13,1.22.23,1.81.32l.19,0,.44.05.85.1.26,0,.49,0,.54,0h1.24q.48,0,.93-.06h0a7.48,7.48,0,0,0,3-.85,2.35,2.35,0,0,0,1.1-2.36l.71-251.14A2.35,2.35,0,0,1,142.29,124Z"/></g><path class="e" d="M324.29,17.36c.53.3.61.83,0,1.18L158,115.16c-3.32,1.93-6.6,1.85-9.23,1.78-1.75,0-3.25-.08-4.34.5a2,2,0,0,0-1.1,1.76c0,.56,0,1.07,0,1.57,0,1.48.09,2.55-1.08,3.23-4,2.31-14.46.14-22.9-4.74s-12.22-10.94-8.25-13.25c1.17-.68,3-.66,5.56-.63.86,0,1.76,0,2.72,0a6,6,0,0,0,3-.65c1-.62.93-1.5.84-2.51-.12-1.52-.27-3.42,3-5.35L292.61.24a2.26,2.26,0,0,1,2,0,.73.73,0,0,1,.4.49c.59,3.07,4.28,7,10.28,10.48a44.11,44.11,0,0,0,18.12,5.92A2,2,0,0,1,324.29,17.36Z"/></g><path class="f" d="M419.29,208.29c-7.2,0-13.49-2.83-16.83-7.58l3.64-2.55c2.47,3.51,7.52,5.69,13.19,5.69s9.83-4,9.83-6.79c0-1.77,0-4.45-11.71-7.31-3.54-.86-14.33-3.5-13.51-11.83.5-5.09,5.39-10.57,14.94-10.57a17.79,17.79,0,0,1,14.7,7.31l-3.73,2.42a13.32,13.32,0,0,0-11-5.29c-7.8,0-10.28,4.13-10.52,6.56-.12,1.23-.45,4.5,10.14,7.09,12.58,3.07,15.1,6.72,15.1,11.62C433.56,202.36,427.46,208.29,419.29,208.29Z"/><path class="f" d="M115.25,208.29A20.28,20.28,0,0,1,95,188V151.68h4.44v23.71a20.26,20.26,0,1,1,15.82,32.9ZM99.43,188a15.82,15.82,0,1,0,15.82-15.82A15.84,15.84,0,0,0,99.43,188Z"/><path class="f" d="M191.74,208.29a20.26,20.26,0,1,1,19-27.27l-4.16,1.54a15.83,15.83,0,1,0-.08,11.14l4.15,1.59A20.38,20.38,0,0,1,191.74,208.29Z"/><path class="f" d="M237.93,208.29a20.26,20.26,0,1,1,15.82-32.9v-8.17h4.44V188A20.28,20.28,0,0,1,237.93,208.29Zm0-36.08A15.82,15.82,0,1,0,253.75,188,15.84,15.84,0,0,0,237.93,172.21Z"/><path class="f" d="M328.92,208.29A20.26,20.26,0,1,1,349.18,188,20.27,20.27,0,0,1,328.92,208.29Zm0-36.08A15.82,15.82,0,1,0,344.74,188,15.84,15.84,0,0,0,328.92,172.21Z"/><path class="f" d="M395.27,208.29h-4.44V188c0-8.72-6.75-15.82-15.05-15.82s-15,7.1-15,15.82v20.26H356.3V167.22h4.44v7.95a19.19,19.19,0,0,1,15-7.4c10.75,0,19.49,9.09,19.49,20.26Z"/><path class="f" d="M86.9,208.85H82.46V200.9a19.17,19.17,0,0,1-15,7.39c-10.74,0-19.49-9.08-19.49-20.26V167.77h4.45V188c0,8.73,6.74,15.82,15,15.82s15-7.09,15-15.82V167.77H86.9Z"/><path class="f" d="M286.53,208.29A13.33,13.33,0,0,1,273.21,195V158.56h4.44V195a8.89,8.89,0,0,0,8.88,8.88Z"/><rect class="f" x="264.32" y="167.44" width="22.2" height="4.44"/><rect class="f" x="159.68" y="167.26" width="4.44" height="40.86"/><path class="f" d="M161.9,164.26a3.29,3.29,0,0,1-.54,0,2.43,2.43,0,0,1-.52-.17,2.08,2.08,0,0,1-.47-.24,3.11,3.11,0,0,1-.43-.35,3.29,3.29,0,0,1-.34-.42,2.77,2.77,0,0,1-.26-.48,3.45,3.45,0,0,1-.16-.52,2.5,2.5,0,0,1-.05-.55,2.38,2.38,0,0,1,.05-.53,2.64,2.64,0,0,1,.16-.52,2.54,2.54,0,0,1,.26-.49,2.72,2.72,0,0,1,.34-.42,2.52,2.52,0,0,1,.43-.35,2.08,2.08,0,0,1,.47-.24,2,2,0,0,1,.52-.16,2.51,2.51,0,0,1,1.09,0,2.21,2.21,0,0,1,.52.16,2.32,2.32,0,0,1,.47.24,2.44,2.44,0,0,1,.42.35,2.3,2.3,0,0,1,.35.42,3.24,3.24,0,0,1,.26.49,3.53,3.53,0,0,1,.16.52,4.75,4.75,0,0,1,.05.53,3.31,3.31,0,0,1-.06.55,3.39,3.39,0,0,1-.15.52,3.67,3.67,0,0,1-.26.48,2.69,2.69,0,0,1-.35.42,3,3,0,0,1-.42.35,2.32,2.32,0,0,1-.47.24,2.86,2.86,0,0,1-.52.17A3.41,3.41,0,0,1,161.9,164.26Z"/><rect class="f" x="295.62" y="167.26" width="4.44" height="40.86"/><path class="f" d="M297.84,164.26a3.19,3.19,0,0,1-.54,0,2.12,2.12,0,0,1-.52-.17,2,2,0,0,1-.48-.24,5,5,0,0,1-.43-.35,4.46,4.46,0,0,1-.34-.42,2.19,2.19,0,0,1-.25-.48,2.59,2.59,0,0,1-.16-.52,2.51,2.51,0,0,1-.06-.55,2.39,2.39,0,0,1,.06-.53,2.1,2.1,0,0,1,.16-.52,2.06,2.06,0,0,1,.25-.49,3.47,3.47,0,0,1,.34-.42,3.65,3.65,0,0,1,.43-.35,2,2,0,0,1,.48-.24,1.75,1.75,0,0,1,.52-.16,2.46,2.46,0,0,1,1.08,0,1.85,1.85,0,0,1,.52.16,2.16,2.16,0,0,1,.48.24,2.89,2.89,0,0,1,.42.35,2.79,2.79,0,0,1,.35.42,2.51,2.51,0,0,1,.25.49,2.64,2.64,0,0,1,.16.52,2.38,2.38,0,0,1,.05.53,2.5,2.5,0,0,1-.05.55,3.45,3.45,0,0,1-.16.52,2.73,2.73,0,0,1-.25.48,4.58,4.58,0,0,1-.35.42,3.71,3.71,0,0,1-.42.35,2.16,2.16,0,0,1-.48.24,2.43,2.43,0,0,1-.52.17A3.29,3.29,0,0,1,297.84,164.26Z"/><path class="f" d="M4.44,224.39H0V188a20.27,20.27,0,1,1,4.44,12.65Zm0-36.36a15.82,15.82,0,1,0,15.82-15.82A15.84,15.84,0,0,0,4.44,188Z"/><path class="f" d="M153.2,208.29a10.13,10.13,0,0,1-10.13-10.12V151.68h4.44v46.49a5.7,5.7,0,0,0,6.86,5.56l.91,4.35A10.34,10.34,0,0,1,153.2,208.29Z"/></svg>