<svg xmlns="http://www.w3.org/2000/svg" xmlns:xlink="http://www.w3.org/1999/xlink" viewBox="0 0 601.64 376.07"><defs><style>.a{fill:url(#a);}.b{isolation:isolate;}.c{fill:url(#b);}.d{fill:url(#c);}.e{fill:url(#d);}.f{fill:#1a1a1a;}</style><linearGradient id="a" x1="-8.57" y1="123.91" x2="222.16" y2="257.12" gradientUnits="userSpaceOnUse"><stop offset="0" stop-color="#5384b6"/><stop offset="1" stop-color="#71d7b9"/></linearGradient><linearGradient id="b" x1="29.7" y1="196.98" x2="215.87" y2="196.98" xlink:href="#a"/><linearGradient id="c" x1="-10.1" y1="244.52" x2="44.87" y2="239.71" xlink:href="#a"/><linearGradient id="d" x1="45.89" y1="29.57" x2="168.4" y2="100.3" xlink:href="#a"/></defs><title>publications</title><path class="a" d="M215.86,18a.69.69,0,0,0-.42-.68,2,2,0,0,0-.85-.23,44.11,44.11,0,0,1-18.12-5.92c-6-3.46-9.68-7.41-10.28-10.48a.74.74,0,0,0-.39-.49,2.29,2.29,0,0,0-2,0L17.49,96.87c-3.32,1.93-3.17,3.83-3,5.35.08,1,.15,1.89-.85,2.51a6,6,0,0,1-3,.65c-1,0-1.86,0-2.71,0-2.55,0-4.4,0-5.56.63a2.91,2.91,0,0,0-1.55,3,3.58,3.58,0,0,1,0-.45L0,359.76c0,2.9,3.67,7.09,9.83,10.65.51.3,1,.58,1.55.85l.53.27,1.06.53.64.29,1,.43.69.29.69.28.2.08c.61.23,1.23.46,1.84.67l.08,0c.64.22,1.27.41,1.9.59l.18.06c.27.08.54.14.81.21l.5.14c.5.12,1,.24,1.49.34h0c.62.13,1.22.23,1.81.32l.19,0,.44.05.85.1.27,0,.48,0,.54,0h1.25c.31,0,.62,0,.92-.06h0c.31,0,.6-.07.89-.12l.22-.06a7.67,7.67,0,0,0,.76-.19l.17,0,.13-.06a4.86,4.86,0,0,0,.86-.39l0,0s0,0,.06,0a1.86,1.86,0,0,0,.28-.21l0,0,.07-.09.09-.09,0-.05a1,1,0,0,0,.08-.11l.06-.09s0,0,0,0l.06-.13a.61.61,0,0,0,.05-.12v0l0-.09c0-.08,0-.16.07-.25s0,0,0,0a.11.11,0,0,1,0-.05,6.06,6.06,0,0,0,.06-.64v0a1.55,1.55,0,0,0,0-.22v-2.66a2.19,2.19,0,0,1,0-.27l0-.1a1.38,1.38,0,0,1,.18-.41l0-.06a1.69,1.69,0,0,1,.3-.36l.08-.05a2.28,2.28,0,0,1,.39-.28,4,4,0,0,1,.52-.21l.17-.06.4-.1.2,0,.3,0,.24,0a4.58,4.58,0,0,1,.53,0h2l1.14,0h.11c.38,0,.77,0,1.17,0h.1c.4,0,.81,0,1.23-.08h0c.4,0,.8-.09,1.22-.17h0l.08,0,.66-.14.21-.05.75-.21h0l.35-.13.26-.09L47,367l.22-.09.45-.21.18-.09.62-.34,166.27-96.62h0l.07-.06.1-.07h0l.09-.09,0,0v0l0,0,0-.08h0v0s0,0,0-.05,0-.05,0-.08h0L215.87,18S215.86,18,215.86,18Zm0,.08a.3.3,0,0,1,0,.08.42.42,0,0,0,0-.1ZM37.2,117l-.29,0Zm-2,.72a.24.24,0,0,0-.08.06A.24.24,0,0,1,35.22,117.72Zm-.77,4.9h0s0-.09,0-.14v0S34.46,122.59,34.45,122.62Zm-.1.36a.08.08,0,0,0,0,0,1.72,1.72,0,0,0,.07-.21.64.64,0,0,0,0,.07Zm-.2.37h0a1,1,0,0,0,.13-.23l-.06.13Zm-.21.26s0,0,0,0l.18-.2,0,.05A.94.94,0,0,0,33.94,123.61Zm-.31.26-.09.06-.1.07h0ZM7.5,117.31c-.4-.28-.79-.56-1.15-.85C6.71,116.75,7.1,117,7.5,117.31Zm1.29.88-1-.65Zm-7-6.52c-.17-.27-.31-.54-.44-.8C1.45,111.13,1.59,111.4,1.76,111.67Zm.57.82c-.19-.26-.37-.51-.53-.76C2,112,2.14,112.23,2.33,112.49ZM.92,109.87a4.14,4.14,0,0,1-.17-.72A4.14,4.14,0,0,0,.92,109.87Zm.3.78a4.66,4.66,0,0,1-.23-.58A4.66,4.66,0,0,0,1.22,110.65Zm2,2.95c.26.28.53.57.82.85C3.76,114.17,3.49,113.88,3.23,113.6Zm-.72-.86.54.65Zm3.65,3.57c-.3-.24-.6-.48-.88-.72C5.56,115.83,5.86,116.07,6.16,116.31Zm-1.17-1-.76-.7Zm5.55,3.93c-.47-.27-.92-.55-1.37-.83.45.28.9.56,1.37.83s1,.58,1.55.86h0C11.57,119.84,11.05,119.56,10.54,119.26Zm2.09,1.12h0l.79.4Zm1.69.82h0l.4.18Zm1.65.72h0l.89.36h0Zm2.73,1h0l.08,0h0Zm2.29.71.69.19h0Zm4.48,1,.46.06-.46-.06Zm1.49.18h0l.74.06h0Zm2.46.09h0Zm5.17-6.21h0l0-.1h0Zm.21-.51h0l0-.06h0Zm.81-.75a4.71,4.71,0,0,1,.52-.21A4.71,4.71,0,0,0,35.61,117.44Zm.69-.26h0a2.92,2.92,0,0,1,.4-.1A2.92,2.92,0,0,0,36.3,117.18Zm1.14-.21.52,0-.52,0Zm.64,0h0c.26,0,.54,0,.82,0C38.62,116.92,38.34,116.92,38.08,116.93Zm1.06,0h0Zm2,0h0Zm1.28,0h-.14l.48,0h-.34Zm1.33-.09-.26,0,.53,0-.25,0Zm1.34-.19-.1,0-.3,0,.67-.12Zm1.62-.4-.74.21-.21.05-.1,0a11,11,0,0,0,1.09-.29h0Zm1.05-.39-.39.16-.25.09-.35.12a12.12,12.12,0,0,0,1.22-.46h0Zm.67-.3-.43.2c.41-.18.82-.39,1.23-.62-.21.12-.41.23-.62.33ZM215.45,18.54l.12-.08,0,0Zm.23-.18.09-.1h0Z"/><g class="b"><g class="b"><path class="c" d="M215.84,18.1v0a.83.83,0,0,1-.07.13v0a.49.49,0,0,1-.12.13l-.1.08-.09.06L49.18,115.16h0c-.2.12-.41.24-.62.34l-.18.09-.44.21-.23.09-.39.16-.25.09-.37.13h0l-.74.21-.21.05-.67.14-.1,0c-.41.08-.82.13-1.22.17h0c-.41,0-.83.07-1.23.08H41.09l-1.14,0H38.9c-.28,0-.56,0-.82,0H38c-.18,0-.36,0-.53,0h-.08l-.15,0-.3,0h-.1l-.1,0a2.73,2.73,0,0,0-.41.1.53.53,0,0,0-.12,0l0,0a4.71,4.71,0,0,0-.52.21l-.11.07a1.46,1.46,0,0,0-.28.21s-.06,0-.08.06h0a1.45,1.45,0,0,0-.21.22l-.08.12,0,.06,0,0a1.23,1.23,0,0,0-.12.26l0,.1,0,.1,0,.12a2.32,2.32,0,0,0-.05.38c0,.08,0,.16,0,.23v2.89a2.06,2.06,0,0,1,0,.26,2.36,2.36,0,0,1-.1.38,2.24,2.24,0,0,1-.13.27c0,.08-.1.16-.16.24l-.2.22a2.47,2.47,0,0,1-.39.29l0,0a5,5,0,0,1-1,.44,7.43,7.43,0,0,1-1.15.29c-.28,0-.58.09-.89.12L29.7,376c.31,0,.6-.07.89-.12a8.77,8.77,0,0,0,1.15-.29,5,5,0,0,0,1-.45l0,0a3,3,0,0,0,.39-.28,2.2,2.2,0,0,0,.2-.23,1.88,1.88,0,0,0,.16-.23,1.59,1.59,0,0,0,.12-.27,2.5,2.5,0,0,0,.11-.39,3.26,3.26,0,0,0,.07-.72,1.55,1.55,0,0,0,0-.22v-2.66a2.19,2.19,0,0,1,0-.27l0-.1a1.38,1.38,0,0,1,.18-.41l0-.06a1.69,1.69,0,0,1,.3-.36l.08-.05a2.28,2.28,0,0,1,.39-.28,4,4,0,0,1,.52-.21l.17-.06.4-.1.2,0,.3,0,.24,0a4.58,4.58,0,0,1,.53,0h2l1.14,0h.11c.38,0,.77,0,1.17,0h.1c.4,0,.81,0,1.23-.08h0c.4,0,.8-.09,1.22-.17h0l.08,0,.66-.14.21-.05.75-.21h0l.35-.13.26-.09L47,367l.22-.09.45-.21.18-.09.62-.34h0l166.27-96.62h0l.07-.06.1-.07h0l.09-.09,0,0v0l0,0,0-.08h0v0s0,0,0-.05,0-.05,0-.08h0L215.87,18A.32.32,0,0,1,215.84,18.1Z"/><path class="d" d="M33.44,124a8.66,8.66,0,0,1-4,.91,2.43,2.43,0,0,1-.27,0c-.29,0-.6,0-.91,0l-.54,0-.74-.06-.85-.1-.64-.08c-.59-.09-1.19-.19-1.8-.32s-1-.22-1.5-.34l-.5-.13-1-.27c-.63-.19-1.26-.38-1.9-.6l-.08,0c-.61-.21-1.23-.43-1.84-.67l-.89-.36-.68-.29c-.33-.13-.65-.28-1-.43l-.64-.29-1-.53-.54-.26c-.52-.28-1-.56-1.55-.86C4.38,115.71.7,111.51.71,108.61L0,359.76c0,2.9,3.67,7.09,9.83,10.65.51.3,1,.58,1.55.85l.53.27,1.06.53.64.29,1,.43.69.29.69.28.2.08c.61.23,1.23.46,1.84.67l.08,0c.64.22,1.27.41,1.9.59l.18.06c.27.08.54.14.81.21l.5.14c.5.12,1,.24,1.49.34h0c.62.13,1.22.23,1.81.32l.19,0,.44.05.85.1.27,0,.48,0,.54,0h1.25c.31,0,.62,0,.92-.06h0a7.44,7.44,0,0,0,3-.85,2.33,2.33,0,0,0,1.1-2.36l.71-251.14A2.35,2.35,0,0,1,33.44,124Z"/></g><path class="e" d="M215.44,17.36c.53.3.61.83,0,1.18L49.18,115.16c-3.32,1.93-6.6,1.85-9.23,1.78-1.75,0-3.25-.08-4.34.5a2,2,0,0,0-1.1,1.76c0,.56,0,1.07,0,1.57,0,1.48.09,2.55-1.08,3.23-4,2.31-14.46.14-22.9-4.74S-1.68,108.32,2.3,106c1.16-.68,3-.66,5.56-.63.85,0,1.75,0,2.71,0a6,6,0,0,0,3-.65c1-.62.93-1.5.85-2.51-.13-1.52-.28-3.42,3-5.35L183.76.24a2.29,2.29,0,0,1,2,0,.74.74,0,0,1,.39.49c.6,3.07,4.28,7,10.28,10.48a44.11,44.11,0,0,0,18.12,5.92A2,2,0,0,1,215.44,17.36Z"/></g><path class="f" d="M585.3,211.23c-8.25,0-15.45-3.24-19.27-8.68l4.16-2.93c2.83,4,8.61,6.53,15.11,6.53s11.26-4.65,11.26-7.78c0-2,0-5.09-13.42-8.37-4-1-16.41-4-15.47-13.55.58-5.83,6.17-12.1,17.11-12.1a20.34,20.34,0,0,1,16.83,8.37l-4.27,2.77a15.24,15.24,0,0,0-12.56-6.05c-8.93,0-11.77,4.72-12,7.51-.14,1.41-.5,5.15,11.62,8.11,14.4,3.52,17.29,7.7,17.29,13.31C601.64,204.44,594.65,211.23,585.3,211.23Z"/><path class="f" d="M237.15,211.23A23.22,23.22,0,0,1,214,188V146.4H219v27.15a23.19,23.19,0,1,1,18.11,37.68ZM219,188a18.12,18.12,0,1,0,18.11-18.11A18.14,18.14,0,0,0,219,188Z"/><path class="f" d="M324.73,211.23A23.2,23.2,0,1,1,346.51,180l-4.77,1.76a18.13,18.13,0,1,0-.09,12.76l4.75,1.83A23.35,23.35,0,0,1,324.73,211.23Z"/><path class="f" d="M377.63,211.23a23.2,23.2,0,1,1,18.11-37.68V164.2h5.09V188A23.22,23.22,0,0,1,377.63,211.23Zm0-41.31A18.12,18.12,0,1,0,395.74,188,18.14,18.14,0,0,0,377.63,169.92Z"/><path class="f" d="M481.81,211.23A23.2,23.2,0,1,1,505,188,23.22,23.22,0,0,1,481.81,211.23Zm0-41.31A18.12,18.12,0,1,0,499.93,188,18.13,18.13,0,0,0,481.81,169.92Z"/><path class="f" d="M557.79,211.23H552.7V188c0-10-7.72-18.11-17.22-18.11s-17.23,8.13-17.23,18.11v23.2h-5.08v-47h5.08v9.11a22,22,0,0,1,17.23-8.48c12.3,0,22.31,10.41,22.31,23.2Z"/><path class="f" d="M204.69,211.87h-5.08v-9.11a22,22,0,0,1-17.23,8.47c-12.3,0-22.31-10.4-22.31-23.2v-23.2h5.09V188c0,10,7.72,18.12,17.22,18.12S199.61,198,199.61,188v-23.2h5.08Z"/><path class="f" d="M433.27,211.23A15.27,15.27,0,0,1,418,196v-41.7h5.09V196a10.18,10.18,0,0,0,10.16,10.17Z"/><rect class="f" x="407.85" y="164.45" width="25.42" height="5.09"/><rect class="f" x="288.03" y="164.24" width="5.09" height="46.78"/><path class="f" d="M290.57,160.81a3.26,3.26,0,0,1-.62-.06,2.78,2.78,0,0,1-.6-.19,3.08,3.08,0,0,1-.54-.28,3.18,3.18,0,0,1-.48-.4,2.55,2.55,0,0,1-.4-.48,4.1,4.1,0,0,1-.3-.55,4.14,4.14,0,0,1-.18-.6,3.18,3.18,0,0,1,0-1.23,3.51,3.51,0,0,1,.18-.6,4.1,4.1,0,0,1,.3-.55,2.27,2.27,0,0,1,.4-.48,2.32,2.32,0,0,1,.48-.4,3.14,3.14,0,0,1,.54-.29,3.42,3.42,0,0,1,.6-.18,2.88,2.88,0,0,1,1.24,0,3.42,3.42,0,0,1,.6.18,3.14,3.14,0,0,1,.54.29,2.32,2.32,0,0,1,.48.4,2.27,2.27,0,0,1,.4.48,4.1,4.1,0,0,1,.3.55,3.51,3.51,0,0,1,.18.6,4.2,4.2,0,0,1,.06.61,3.82,3.82,0,0,1-.24,1.22,4.1,4.1,0,0,1-.3.55,2.55,2.55,0,0,1-.4.48,3.18,3.18,0,0,1-.48.4,3.08,3.08,0,0,1-.54.28,2.78,2.78,0,0,1-.6.19A3.26,3.26,0,0,1,290.57,160.81Z"/><rect class="f" x="443.68" y="164.24" width="5.09" height="46.78"/><path class="f" d="M446.23,160.81a3.18,3.18,0,0,1-.62-.06,2.47,2.47,0,0,1-.6-.19,2.85,2.85,0,0,1-.55-.28,3.77,3.77,0,0,1-.48-.4,3.64,3.64,0,0,1-.4-.48,2.59,2.59,0,0,1-.28-.55,3.22,3.22,0,0,1-.19-.6,2.74,2.74,0,0,1,0-1.23,2.81,2.81,0,0,1,.19-.6,2.59,2.59,0,0,1,.28-.55,3.09,3.09,0,0,1,.4-.48,2.62,2.62,0,0,1,.48-.4,2.89,2.89,0,0,1,.55-.29,3,3,0,0,1,.6-.18,2.84,2.84,0,0,1,1.23,0A3.23,3.23,0,0,1,448,155a3.06,3.06,0,0,1,.49.4,3,3,0,0,1,.39.48,2.22,2.22,0,0,1,.29.55,2.79,2.79,0,0,1,.18.6,3.2,3.2,0,0,1-.18,1.83,2.22,2.22,0,0,1-.29.55,4.54,4.54,0,0,1-.39.48,4.74,4.74,0,0,1-.49.4,2.59,2.59,0,0,1-.55.28,2.47,2.47,0,0,1-.6.19A3.08,3.08,0,0,1,446.23,160.81Z"/><path class="f" d="M110.27,229.67h-5.09V188a23.23,23.23,0,1,1,5.09,14.48Zm0-41.64a18.12,18.12,0,1,0,18.11-18.11A18.13,18.13,0,0,0,110.27,188Z"/><path class="f" d="M280.6,211.23A11.61,11.61,0,0,1,269,199.64V146.4h5.09v53.24a6.52,6.52,0,0,0,6.51,6.51A6.8,6.8,0,0,0,282,206l1,5A12,12,0,0,1,280.6,211.23Z"/></svg>