<svg xmlns="http://www.w3.org/2000/svg" xmlns:xlink="http://www.w3.org/1999/xlink" viewBox="0 0 435.84 212.12"><defs><style>.a{fill:url(#a);}.b{isolation:isolate;}.c{fill:url(#b);}.d{fill:url(#c);}.e{fill:url(#d);}.f{fill:url(#e);}.g{fill:#1a1a1a;}</style><linearGradient id="a" x1="140.68" y1="191.42" x2="295.16" y2="36.95" gradientUnits="userSpaceOnUse"><stop offset="0" stop-color="#5384b6"/><stop offset="1" stop-color="#71d7b9"/></linearGradient><linearGradient id="b" x1="308.5" y1="205.88" x2="127.32" y2="24.71" xlink:href="#a"/><linearGradient id="c" x1="142.77" y1="185.2" x2="293.09" y2="34.88" xlink:href="#a"/><linearGradient id="d" x1="194.59" y1="82.48" x2="209.6" y2="82.48" gradientUnits="userSpaceOnUse"><stop offset="0" stop-color="#185a9d"/><stop offset="1" stop-color="#43cea2"/></linearGradient><linearGradient id="e" x1="199.1" y1="42.67" x2="281.97" y2="42.67" xlink:href="#d"/></defs><title>research-mobile_1</title><path class="a" d="M379.91,124.37c.19-2.26-1.19-4.56-4.17-6.28L203.51,18.66c-5.58-3.23-14.59-3.22-20.14,0L60.06,90.32c-2.76,1.6-4.14,3.71-4.14,5.81v0l0,8.29c0,2.13,1.39,4.25,4.2,5.87l172.23,99.44c.34.19.69.38,1,.55l.36.16.64.28.08,0c.5.19,1,.36,1.53.52l.12,0,.37.09.88.22.24,0,.35.06.76.14.3,0,.33,0,.72.08.34,0,.31,0,.73,0,.36,0h1.69l1-.07.39,0,.11,0c.55-.06,1.09-.13,1.62-.22l.08,0c.16,0,.31-.06.46-.09l.79-.17.56-.15.73-.21.16,0,.25-.09c.38-.13.75-.27,1.12-.43l.4-.17a14.19,14.19,0,0,0,1.35-.68l123.31-71.66.18-.1c.13-.08.24-.17.36-.25s.35-.22.51-.34a4.31,4.31,0,0,0,.4-.32,4.94,4.94,0,0,0,.44-.36l.09-.07q.27-.26.51-.51l.09-.12c.1-.1.19-.21.28-.32a2.48,2.48,0,0,0,.19-.26l.07-.09c.11-.17.22-.33.31-.5a1.17,1.17,0,0,0,.05-.11,3.55,3.55,0,0,0,.21-.44c0-.09.09-.17.12-.26l0-.09c.05-.14.08-.28.12-.42s.06-.19.08-.29a.22.22,0,0,0,0-.08,3.44,3.44,0,0,0,.05-.45c0-.09,0-.19,0-.29v-.12l0-8.29C379.94,124.1,379.92,124.23,379.91,124.37ZM57.31,99.67c.09.1.16.21.26.31C57.47,99.88,57.4,99.77,57.31,99.67ZM56,96.55c0,.13,0,.25,0,.37C56,96.8,56,96.68,56,96.55Zm.14.8c0,.12,0,.24.09.36C56.15,97.59,56.13,97.47,56.1,97.35Zm.27.79c.05.11.09.23.15.35C56.46,98.37,56.42,98.25,56.37,98.14Zm.4.77c.07.11.13.22.21.33C56.9,99.13,56.84,99,56.77,98.91Zm2.37,2.44-.32-.25Zm-.85-.67a4.11,4.11,0,0,1-.3-.29A4.11,4.11,0,0,0,58.29,100.68Zm1.84,1.3,172.22,99.44.73.38-.73-.38ZM233.76,202.12l.28.12-.27-.12ZM236,203h0l.49.13h0Zm5.53.86.57,0h0Zm2.93-.07h0l.51,0h0Zm2.13-.27h0l.53-.11h0Zm2.61-.63h0l.28-.1Zm126.71-73.16.44-.28h0Zm1.17-.8.18-.13h0Zm.82-.7c.13-.13.27-.25.39-.39h0C378.18,127.93,378,128.05,377.91,128.18Zm.67-.73c.1-.12.2-.24.29-.37l0,0Zm.53-.75c.06-.1.13-.2.18-.3h0Zm.4-.76c.05-.11.1-.22.14-.33h0C379.6,125.73,379.55,125.83,379.51,125.94Zm.26-.79a3.37,3.37,0,0,0,.09-.34v0C379.83,124.94,379.8,125,379.77,125.15Z"/><g class="b"><path class="c" d="M379.94,124c0,.13,0,.27,0,.41s0,.3-.06.45a2.37,2.37,0,0,1-.09.36,3,3,0,0,1-.12.43c0,.12-.1.23-.15.35a3.49,3.49,0,0,1-.2.44,5.39,5.39,0,0,1-.37.6.36.36,0,0,1-.07.1,6.15,6.15,0,0,1-.46.58,1.09,1.09,0,0,1-.1.11,6.71,6.71,0,0,1-.6.59c-.13.12-.28.24-.43.36s-.26.22-.4.32l-.51.34-.54.35L252.49,201.42a14,14,0,0,1-1.34.68l-.41.17c-.36.15-.74.3-1.12.43l-.41.14-.73.21-.56.15-.79.16-.53.11c-.54.1-1.08.17-1.62.23l-.51,0-1,.06-.62,0h-.78l-.65,0-.72,0-.66-.06-.71-.08c-.21,0-.43,0-.64-.09l-.75-.13a5.6,5.6,0,0,1-.59-.12c-.3-.06-.6-.14-.89-.21L236,203c-.52-.16-1-.33-1.52-.52-.25-.1-.49-.2-.72-.31l-.37-.16q-.54-.26-1.05-.54L60.13,102c-2.81-1.62-4.21-3.75-4.21-5.87l0,8.29c0,2.13,1.39,4.25,4.2,5.87l172.23,99.44c.34.19.69.38,1,.55l.36.16.64.28.08,0c.5.19,1,.37,1.53.52l.12,0,.37.09.88.22.24,0,.35.06.76.14.3,0,.33,0,.72.08.34,0,.31,0,.73,0,.36,0h1.69l1-.07.39,0,.11,0c.55-.06,1.09-.13,1.62-.22l.08,0c.16,0,.31-.06.46-.09l.79-.17.56-.15.73-.21.16,0,.25-.09c.38-.13.75-.27,1.12-.43l.4-.17a14.19,14.19,0,0,0,1.35-.68l123.31-71.66.18-.1c.13-.08.24-.17.36-.25s.35-.22.51-.34a4.31,4.31,0,0,0,.4-.32,4.94,4.94,0,0,0,.44-.36l.09-.07q.27-.26.51-.51l.09-.12c.1-.1.19-.21.28-.32a2.48,2.48,0,0,0,.19-.26l.07-.09c.11-.17.22-.33.31-.5a1.17,1.17,0,0,0,.05-.11,3.55,3.55,0,0,0,.21-.44c0-.09.09-.17.12-.26l0-.09c.05-.14.08-.28.12-.42s.06-.19.08-.29a.22.22,0,0,0,0-.08,3.44,3.44,0,0,0,.05-.45c0-.09,0-.19,0-.29v-.12h0Z"/><path class="d" d="M375.74,118.09c5.58,3.22,5.61,8.45.07,11.67L252.49,201.42c-5.54,3.22-14.56,3.22-20.14,0L60.13,102c-5.58-3.22-5.61-8.44-.07-11.66L183.37,18.66c5.55-3.22,14.56-3.23,20.14,0Z"/></g><path class="e" d="M209.59,81.06a2.44,2.44,0,0,0,0-.27v-.22c0-.09,0-.18,0-.28l0-.21a2.93,2.93,0,0,0-.05-.29c0-.07,0-.14,0-.21l-.09-.29-.06-.21-.12-.31c0-.06-.05-.13-.08-.19a3.59,3.59,0,0,0-.17-.34l-.08-.16c-.09-.16-.19-.33-.3-.49l-.22-.29-.06-.08-.14-.16c-.07-.08-.13-.16-.2-.23l-.15-.16-.22-.21-.16-.14a2.51,2.51,0,0,0-.24-.19L207,76l-.28-.19-.13-.09a4.49,4.49,0,0,0-.42-.24h0l-.43-.2-.15-.06-.29-.11-.18,0-.27-.08-.19,0-.27,0-.19,0-.26,0h-.19a2.43,2.43,0,0,0-.27,0h-.17l-.29,0-.15,0-.38.08h-.05l-.39.13h0a4.25,4.25,0,0,0-.43.21,3,3,0,0,0-.46.3l-.12.1a3.71,3.71,0,0,0-.29.27l-.1.11a3,3,0,0,0-.32.41l0,.06c-.08.13-.15.27-.22.41l0,.06c-.18.4-.42.95-.59,1.36l-.3.68-.2.45-.28.64-.11.27-.22.5-.14.32-.24.54-.29.68-.24.54-.17.39-.19.43c-.1.25-.23.54-.36.83l-2.07,4.77a.49.49,0,0,0,.66.64l12.2-5.82a1.24,1.24,0,0,0,.2-.1,3.42,3.42,0,0,0,.62-.43l.06-.06a3.23,3.23,0,0,0,.47-.51l.06-.09a5,5,0,0,0,.34-.59s0-.07,0-.11a3.63,3.63,0,0,0,.21-.66s0,0,0,0a.59.59,0,0,0,0-.14,2.51,2.51,0,0,0,0-.27A1.23,1.23,0,0,0,209.59,81.06Z"/><path class="f" d="M281.4,8.07a4.11,4.11,0,0,0,.27-.56s0,0,0-.08a4.16,4.16,0,0,0,.17-.63.51.51,0,0,0,0-.13A4.6,4.6,0,0,0,282,6s0-.07,0-.1a4,4,0,0,0,0-.69.09.09,0,0,0,0,0,3.76,3.76,0,0,0-.17-.72.74.74,0,0,0,0-.14,6.81,6.81,0,0,0-.28-.7l-.07-.12a6.71,6.71,0,0,0-.42-.72C279.24.33,276.13-.69,274,.49a4.38,4.38,0,0,0-.42.28l-.13.1-.25.23-.06,0L270.55,3.8l-2.33,2.41-2.74,2.84-2.07,2.13-2.35,2.44-1.75,1.81L239.79,35.62,236.5,39l-3,3.14-19.52,20.2-1.75,1.81-2.35,2.43-2.06,2.14L205,71.59,202.7,74l-2.56,2.65a.1.1,0,0,0,0,0,3.9,3.9,0,0,0-.4.51l0,.06a3.55,3.55,0,0,0-.28.55l0,.08a3.26,3.26,0,0,0-.18.63s0,.08,0,.13a3.68,3.68,0,0,0-.06.66v.11a5.31,5.31,0,0,0,.05.68.13.13,0,0,0,0,.06,6.62,6.62,0,0,0,.17.71c0,.05,0,.1,0,.14a4.7,4.7,0,0,0,.29.7l.06.12a5.2,5.2,0,0,0,.42.72c1.68,2.44,4.8,3.46,7,2.28a4,4,0,0,0,.43-.28l.12-.1.25-.22.06,0c.84-.88,1.7-1.76,2.56-2.65l14.17-14.67,1.38-1.42,20.22-20.93,1.32-1.36L267.12,23l1.75-1.81,2.35-2.44c.69-.71,1.38-1.43,2.07-2.13L276,13.75l2.33-2.41,2.56-2.65.05-.06a3.73,3.73,0,0,0,.39-.5A.21.21,0,0,1,281.4,8.07Z"/><path class="g" d="M122.34,157.08c-9.79,0-18.34-3.86-22.88-10.32l4.94-3.47c3.36,4.78,10.23,7.75,17.94,7.75s13.38-5.52,13.38-9.24c0-2.41,0-6.05-15.93-9.94-4.82-1.18-19.5-4.76-18.38-16.1.68-6.92,7.33-14.37,20.32-14.37a24.15,24.15,0,0,1,20,10l-5.07,3.28a18.11,18.11,0,0,0-14.92-7.19c-10.6,0-14,5.61-14.31,8.92-.16,1.68-.6,6.13,13.8,9.64,17.1,4.18,20.54,9.15,20.54,15.81C141.76,149,133.45,157.08,122.34,157.08Z"/><path class="g" d="M64.9,156.79a27.56,27.56,0,1,1,27.56-27.56v3l-48.85.07A21.51,21.51,0,0,0,85,136.94l5.64,2.17A27.73,27.73,0,0,1,64.9,156.79Zm0-49.07a21.54,21.54,0,0,0-21.31,18.57l42.62-.07A21.56,21.56,0,0,0,64.9,107.72Z"/><path class="g" d="M177.8,156.79a27.56,27.56,0,1,1,27.56-27.56v3l-48.85.07a21.52,21.52,0,0,0,41.39,4.62l5.64,2.17A27.74,27.74,0,0,1,177.8,156.79Zm0-49.07a21.54,21.54,0,0,0-21.31,18.57l42.62-.07A21.55,21.55,0,0,0,177.8,107.72Z"/><path class="g" d="M347.52,156.79a27.56,27.56,0,1,1,25.86-37.09l-5.66,2.09a21.52,21.52,0,1,0-.1,15.15l5.64,2.17A27.74,27.74,0,0,1,347.52,156.79Z"/><path class="g" d="M243.14,156.79A27.56,27.56,0,1,1,264.65,112V100.93h6v28.3A27.58,27.58,0,0,1,243.14,156.79Zm0-49.07a21.52,21.52,0,1,0,21.51,21.51A21.54,21.54,0,0,0,243.14,107.72Z"/><path class="g" d="M435.84,157.17h-6V129.61c0-11.86-9.18-21.51-20.46-21.51s-20.46,9.65-20.46,21.51v27.56h-6V79.79h6v32.33a26.09,26.09,0,0,1,20.46-10.06c14.61,0,26.5,12.36,26.5,27.55Z"/><path class="g" d="M6,157.17H0V101.3H6v10.82A26.07,26.07,0,0,1,26.5,102.06a25.53,25.53,0,0,1,10.06,2l-2.37,5.56a19.52,19.52,0,0,0-7.69-1.57C15.22,108.1,6,117.75,6,129.61Z"/><path class="g" d="M287.27,157.17h-6V101.3h6v10.82a26.07,26.07,0,0,1,20.46-10.06,25.56,25.56,0,0,1,10.06,2l-2.38,5.56a19.43,19.43,0,0,0-7.68-1.57c-11.28,0-20.46,9.65-20.46,21.51Z"/></svg>