<svg xmlns="http://www.w3.org/2000/svg" xmlns:xlink="http://www.w3.org/1999/xlink" viewBox="0 0 568.91 251.26"><defs><style>.a{fill:url(#a);}.b{isolation:isolate;}.c{fill:url(#b);}.d{fill:url(#c);}.e{fill:url(#d);}.f{fill:url(#e);}.g{fill:#1a1a1a;}</style><linearGradient id="a" x1="108.76" y1="224.71" x2="306.91" y2="26.56" gradientUnits="userSpaceOnUse"><stop offset="0" stop-color="#5384b6"/><stop offset="1" stop-color="#71d7b9"/></linearGradient><linearGradient id="b" x1="324.02" y1="243.26" x2="91.62" y2="10.86" xlink:href="#a"/><linearGradient id="c" x1="111.44" y1="216.73" x2="304.26" y2="23.91" xlink:href="#a"/><linearGradient id="d" x1="156.79" y1="115.81" x2="176.04" y2="115.81" gradientUnits="userSpaceOnUse"><stop offset="0" stop-color="#185a9d"/><stop offset="1" stop-color="#43cea2"/></linearGradient><linearGradient id="e" x1="162.56" y1="64.75" x2="268.86" y2="64.75" xlink:href="#d"/></defs><title>자산 24</title><path class="a" d="M415.62,138.7c.25-2.9-1.52-5.84-5.34-8L189.35,3.1C182.19-1,170.63-1,163.52,3.1L5.34,95C1.8,97.08,0,99.78,0,102.48v0l0,10.64c0,2.72,1.79,5.45,5.39,7.53L226.32,248.17c.43.25.88.48,1.34.7.15.08.31.14.47.21l.82.36.1,0c.64.25,1.29.47,2,.66l.16.06.47.11,1.13.28.31.07.45.08,1,.17.39.07.43,0,.91.11.43,0,.41,0,.93.05.46,0h1.87l.3,0c.41,0,.82,0,1.23-.08l.5,0,.15,0c.7-.08,1.39-.17,2.08-.29l.1,0c.2,0,.39-.08.59-.12l1-.22.73-.19c.31-.09.63-.17.93-.27l.21-.06c.11,0,.21-.08.32-.12q.74-.26,1.44-.54l.52-.23a17.31,17.31,0,0,0,1.72-.87l158.18-91.92.22-.13c.17-.1.31-.21.48-.32l.65-.43.51-.41c.19-.15.39-.3.56-.46l.11-.09a8.31,8.31,0,0,0,.66-.67l.12-.14c.12-.14.25-.27.36-.41l.24-.34.09-.12c.14-.21.28-.42.4-.63,0,0,0-.1.07-.14.1-.19.18-.38.26-.57s.12-.22.16-.33l0-.12a5.52,5.52,0,0,0,.16-.54c0-.13.08-.25.1-.37a.34.34,0,0,0,0-.1,5.41,5.41,0,0,0,.07-.58c0-.12,0-.25,0-.37s0-.11,0-.16l0-10.64A4.8,4.8,0,0,1,415.62,138.7ZM1.82,107c.11.14.2.27.32.4C2,107.28,1.93,107.15,1.82,107ZM.08,103a3.88,3.88,0,0,0,0,.48A3.88,3.88,0,0,1,.08,103Zm.17,1c0,.16.07.31.12.46C.32,104.35.29,104.2.25,104Zm.35,1c.07.15.12.3.19.45C.72,105.35.67,105.2.6,105.05Zm.52,1c.09.14.16.28.26.42C1.28,106.33,1.21,106.19,1.12,106.05Zm3,3.13-.41-.32Zm-1.09-.86c-.14-.12-.26-.25-.39-.38C2.81,108.07,2.93,108.2,3.07,108.32ZM5.42,110,226.35,237.54c.3.17.62.33.93.48-.31-.15-.63-.31-.93-.48ZM228.16,238.44l.36.15-.36-.15ZM231,239.5h0l.63.16h0Zm7.09,1.1.74,0h0Zm3.76-.09h0l.65,0h0Zm2.73-.34h0l.69-.14h0Zm3.36-.82h0l.36-.12Zm162.53-93.83.56-.36h0Zm1.5-1,.22-.18h0Zm1.05-.9c.17-.17.35-.33.5-.49h0C413.4,143.27,413.23,143.43,413.06,143.59Zm.86-.93c.13-.16.26-.32.37-.48l0,0C414.17,142.36,414,142.51,413.92,142.66Zm.68-1c.08-.13.16-.26.23-.39h0C414.76,141.45,414.68,141.57,414.6,141.7Zm.51-1c.06-.14.13-.28.18-.42v0C415.23,140.44,415.17,140.58,415.11,140.71Zm.34-1c0-.14.08-.28.11-.43v0A2.73,2.73,0,0,1,415.45,139.7Z"/><g class="b"><path class="c" d="M415.67,138.18a4.93,4.93,0,0,1-.05.54,5.54,5.54,0,0,1-.07.57,4,4,0,0,1-.11.47,5.7,5.7,0,0,1-.16.55,4.17,4.17,0,0,1-.19.44c-.08.19-.16.38-.26.57a6.9,6.9,0,0,1-.47.77l-.09.13a8.1,8.1,0,0,1-.6.74l-.12.15c-.23.25-.49.5-.77.75s-.37.31-.56.46-.33.28-.51.41-.43.29-.65.43-.45.31-.7.45L252.18,237.54c-.55.31-1.13.6-1.72.87l-.52.22q-.7.3-1.44.54l-.52.18c-.31.1-.63.19-.95.27l-.71.2-1,.21-.69.14c-.69.12-1.38.22-2.08.29l-.65,0q-.62.06-1.23.09l-.8,0h-1l-.84,0-.93,0-.84-.07-.91-.1-.82-.12c-.33,0-.65-.1-1-.17s-.51-.09-.76-.15-.76-.18-1.13-.28l-.63-.16c-.67-.2-1.32-.42-2-.67-.31-.12-.62-.25-.92-.39l-.47-.2c-.46-.22-.91-.45-1.34-.7L5.42,110c-3.6-2.08-5.4-4.81-5.39-7.54l0,10.64c0,2.72,1.79,5.45,5.39,7.53L226.32,248.17c.43.25.88.48,1.34.7.15.08.31.14.47.21l.82.36.1,0c.64.25,1.29.47,2,.66l.16.06.47.11,1.13.28.31.07.45.08,1,.17.39.07.43,0,.91.11.43,0,.41,0,.93.05.46,0h1.87l.3,0c.41,0,.82,0,1.23-.08l.5,0,.15,0c.7-.08,1.39-.17,2.08-.29l.1,0c.2,0,.39-.08.59-.12l1-.22.73-.19c.31-.09.63-.17.93-.27l.21-.06c.11,0,.21-.08.32-.12q.74-.26,1.44-.54l.52-.23a17.31,17.31,0,0,0,1.72-.87l158.18-91.92.22-.13c.17-.1.31-.21.48-.32l.65-.43.51-.41c.19-.15.39-.3.56-.46l.11-.09a8.31,8.31,0,0,0,.66-.67l.12-.14c.12-.14.25-.27.36-.41l.24-.34.09-.12c.14-.21.28-.42.4-.63,0,0,0-.1.07-.14.1-.19.18-.38.26-.57s.12-.22.16-.33l0-.12a5.52,5.52,0,0,0,.16-.54c0-.13.08-.25.1-.37a.34.34,0,0,0,0-.1,5.41,5.41,0,0,0,.07-.58c0-.12,0-.25,0-.37s0-.11,0-.16h0Z"/><path class="d" d="M410.28,130.65c7.15,4.13,7.19,10.83.08,15L252.18,237.54c-7.11,4.13-18.68,4.13-25.83,0L5.42,110c-7.15-4.14-7.19-10.83-.08-15L163.52,3.1C170.63-1,182.19-1,189.35,3.1Z"/></g><path class="e" d="M176,114c0-.11,0-.23,0-.35s0-.18,0-.27,0-.24,0-.36a2.51,2.51,0,0,0,0-.27c0-.12,0-.25-.06-.37l-.06-.28c0-.12-.07-.24-.1-.37l-.09-.27a3.12,3.12,0,0,0-.15-.39,2.6,2.6,0,0,0-.1-.25l-.21-.43-.11-.21c-.12-.21-.25-.42-.39-.62l-.28-.38-.08-.1-.18-.21-.26-.3-.19-.19-.28-.27-.2-.18-.31-.25-.19-.15-.36-.25-.17-.11c-.18-.11-.36-.22-.54-.31h0l-.55-.26-.19-.07-.38-.14-.23-.07-.35-.1-.24-.06-.34-.06-.24,0-.34,0H168l-.37,0-.2,0-.48.1-.06,0a4.2,4.2,0,0,0-.5.17h0a4.67,4.67,0,0,0-.56.26,3.92,3.92,0,0,0-.58.39l-.16.12a3.15,3.15,0,0,0-.37.36l-.13.13a5,5,0,0,0-.41.53.16.16,0,0,1,0,.07c-.1.17-.19.35-.28.53l0,.07-.76,1.75-.38.87-.26.59-.35.82-.15.34-.28.64-.18.41-.3.7-.38.87c-.09.21-.2.44-.3.69l-.22.5-.24.56-.46,1.05-2.67,6.12a.63.63,0,0,0,.85.83l15.66-7.47.25-.13a4.5,4.5,0,0,0,.79-.56l.09-.06a5.25,5.25,0,0,0,.59-.66l.09-.12a5.08,5.08,0,0,0,.42-.76l.06-.14a4.84,4.84,0,0,0,.27-.84s0,0,0,0a1.13,1.13,0,0,0,0-.18c0-.11,0-.23.05-.34A2.45,2.45,0,0,0,176,114Z"/><path class="f" d="M268.13,20.36a4.3,4.3,0,0,0,.36-.71l0-.1a4.4,4.4,0,0,0,.22-.81.9.9,0,0,0,0-.16,4.82,4.82,0,0,0,.08-.86v-.13a5.1,5.1,0,0,0-.07-.87.22.22,0,0,0,0-.08,6.39,6.39,0,0,0-.21-.92l-.06-.17a8.44,8.44,0,0,0-.36-.9l-.09-.16a6.69,6.69,0,0,0-.54-.92c-2.16-3.13-6.15-4.44-8.91-2.92-.2.11-.37.23-.55.35l-.15.13c-.12.1-.23.19-.33.29a.46.46,0,0,0-.07.07l-3.29,3.4-3,3.09c-1.16,1.2-2.33,2.42-3.52,3.64l-2.65,2.74-3,3.13-2.25,2.32-25,25.9-4.23,4.37-3.9,4L181.61,90l-2.25,2.32-3,3.12L173.7,98.2l-3.52,3.64-3,3.1-3.29,3.39-.05.07a5.2,5.2,0,0,0-.51.65.56.56,0,0,1-.05.08,6.67,6.67,0,0,0-.35.71s0,.07,0,.11a5,5,0,0,0-.23.8l0,.16a8.08,8.08,0,0,0-.08.86s0,.09,0,.13a6.62,6.62,0,0,0,.06.88.17.17,0,0,1,0,.07,7.67,7.67,0,0,0,.22.92l.06.18a7.53,7.53,0,0,0,.36.89l.08.16a9.6,9.6,0,0,0,.54.92c2.16,3.14,6.15,4.44,8.92,2.92a3.84,3.84,0,0,0,.54-.35l.16-.13.32-.29a.27.27,0,0,0,.08-.07l3.28-3.39L195.38,95.8,197.15,94l25.94-26.84c.57-.58,1.13-1.17,1.69-1.75l25-25.9,2.24-2.32,3-3.13,2.65-2.74,3.52-3.64,3-3.09,3.28-3.4s0-.05.06-.07a4.56,4.56,0,0,0,.51-.65A.59.59,0,0,0,268.13,20.36Z"/><path class="g" d="M310.05,157.5c-8.09,0-15.15-3.18-18.89-8.52l4.08-2.86c2.77,3.95,8.44,6.4,14.81,6.4s11-4.56,11-7.63c0-2,0-5-13.15-8.21-4-1-16.1-3.93-15.17-13.29.56-5.71,6.05-11.87,16.77-11.87a19.93,19.93,0,0,1,16.51,8.22l-4.19,2.7a15,15,0,0,0-12.32-5.93c-8.75,0-11.54,4.63-11.81,7.37-.14,1.38-.5,5.05,11.39,8,14.12,3.45,17,7.55,17,13C326.08,150.84,319.22,157.5,310.05,157.5Z"/><path class="g" d="M262.62,157.27a22.76,22.76,0,1,1,22.75-22.76V137l-40.33.07a17.77,17.77,0,0,0,34.17,3.81l4.66,1.78A22.89,22.89,0,0,1,262.62,157.27Zm0-40.52A17.79,17.79,0,0,0,245,132.08l35.19-.06A17.79,17.79,0,0,0,262.62,116.75Z"/><path class="g" d="M355.84,157.27a22.76,22.76,0,1,1,22.76-22.76V137l-40.34.07a17.77,17.77,0,0,0,34.18,3.81l4.65,1.79A22.89,22.89,0,0,1,355.84,157.27Zm0-40.52a17.78,17.78,0,0,0-17.59,15.33l35.19-.06A17.8,17.8,0,0,0,355.84,116.75Z"/><path class="g" d="M496,157.27a22.76,22.76,0,1,1,21.36-30.63l-4.68,1.73a17.76,17.76,0,1,0-.08,12.51l4.65,1.79A22.89,22.89,0,0,1,496,157.27Z"/><path class="g" d="M409.79,157.27a22.76,22.76,0,1,1,17.77-37v-9.17h5v23.37A22.79,22.79,0,0,1,409.79,157.27Zm0-40.52a17.77,17.77,0,1,0,17.77,17.76A17.78,17.78,0,0,0,409.79,116.75Z"/><path class="g" d="M568.91,157.58h-5V134.83c0-9.8-7.58-17.77-16.89-17.77s-16.89,8-16.89,17.77v22.75h-5V93.68h5v26.7A21.51,21.51,0,0,1,547,112.07c12.06,0,21.88,10.21,21.88,22.76Z"/><path class="g" d="M214,157.58h-5V111.45h5v8.93a21.51,21.51,0,0,1,16.89-8.31,21.15,21.15,0,0,1,8.31,1.7l-2,4.59a16.1,16.1,0,0,0-6.35-1.3c-9.32,0-16.89,8-16.89,17.77Z"/><path class="g" d="M446.23,157.58h-5V111.45h5v8.93a21.54,21.54,0,0,1,16.89-8.31,21.15,21.15,0,0,1,8.31,1.7l-2,4.59a16.07,16.07,0,0,0-6.35-1.3c-9.31,0-16.89,8-16.89,17.77Z"/></svg>