<svg xmlns="http://www.w3.org/2000/svg" viewBox="0 0 821.72 139.43"><defs><style>.a{fill:#fff;}</style></defs><title>snu-logo</title><path class="a" d="M31.38,70.87H27v5.55h4.39Zm-19.19,42c6.33,8.36,17.47,6.46,17.47,6.46,1.35-11.85-3.44-15.68-3.44-15.68-3,6.28,1.52,13.87,1.52,13.87C21,111.29,12.19,112.89,12.19,112.89Zm11.55-65-2.13-2c-5.14,1.32-8.89,5.88-8.89,5.88a19.13,19.13,0,0,0,0-14.07l-1.55-1.27c-4.47,8.47.48,17.76.48,17.76C18.56,52.56,22,49.84,23.74,47.91Zm14.38,77.26a28.2,28.2,0,0,0-1.72-8.5H32.17a20.86,20.86,0,0,0,3.74,7c-7.75-5-16.12-1.88-16.12-1.88C27.48,129,38.12,125.17,38.12,125.17Zm-1-62.77v48.23H61c2.71.07,5.48,2.19,5.48,2.19V74.23C52,73.92,49.07,62.4,49.07,62.4ZM48.39,91.72H46.6v9.33H44.33V91.72H42.56V89.59h5.83Zm11.27,9.52a3.47,3.47,0,0,1-1.95-.59V98.5a3,3,0,0,0,1.72.61,1.23,1.23,0,0,0,1.31-1.25c0-.88-.7-1.22-1.34-1.67-1.31-.88-2.11-1.73-2.11-3.4,0-1.82,1-3.38,3-3.38a3.86,3.86,0,0,1,2,.56v2.2a2.57,2.57,0,0,0-1.63-.72,1,1,0,0,0-1.14,1.12c0,1.89,3.45,2,3.45,5.09C63,99.7,61.79,101.24,59.66,101.24Zm1.68-25.61H63.6V87.1H61.34Zm-7.12,0H56.5c1.44,0,4,.16,4,3.28a3.19,3.19,0,0,1-1.62,3l2,5.22H58.51l-2-5.3h0v5.3H54.22Zm2.38,25.42H54.18l-.42-1.92h-2.3l-.41,1.92H48.8l2.66-11.46h2.39ZM53.75,75.63v2.13H51.46v2.5h2v2.12h-2V85h2.33V87.1h-4.6V75.65L46,87.1H44.17L40.85,75.63h2.43l1.37,5.51a19.52,19.52,0,0,1,.41,2h0c.12-.67.17-1.32.35-2l1.38-5.48Zm38.8-38.16-7.17,7.8.08,12.45a14.08,14.08,0,0,1-.66,3.06h4.6l13.15-13.15Zm-61,59.64H27.14v5.55h4.38Zm7.16-53.86,9.21,9.06v-7l-9.21-9.21Zm-7.26,77.63a1,1,0,0,0,0-2.08,1,1,0,0,0,0,2.08ZM14.74,46.68a1,1,0,1,0,1-1A1,1,0,0,0,14.74,46.68Zm16.74,66.61c0,.47.13-.11.13-.11v-6.77l-1.11,1.24A24.23,24.23,0,0,1,31.48,113.29ZM47.89,55.78V54.36l-6.79-6.8H25.17l9,8.22ZM13.34,36.44s-.6-3.71,3.27-9.27H3.54S4.09,28.69,13.34,36.44ZM2,56.84C-.34,67.07,8.29,74.38,8.29,74.38c9.93-6.58,9.78-12.72,9.78-12.72-6.72,1.76-9.64,10.09-9.64,10.09C8.87,62.54,2,56.84,2,56.84Zm7.71,4.74c2-9-3.75-15.8-3.75-15.8C1.88,55.45,9.11,64.15,9.11,64.15,20,59.39,21,53.32,21,53.32,14,53.88,9.71,61.58,9.71,61.58Zm.91,4.29a1,1,0,1,0-1,1A1,1,0,0,0,10.62,65.87ZM63.9,118.6h6.86s.46-3,2.39-3h28.47V65.53l-2.83-3v49.65H73.29a9.66,9.66,0,0,0-6.1,3.57,8.85,8.85,0,0,0-6.56-3.42H35.73V63l-3.06,3.06v49.57H60.48S63.9,115.76,63.9,118.6ZM19.29,26.54C12.15,34.23,16,44.87,16,44.87c11.9-.72,14.84-6.11,14.84-6.11-6.71-1.84-13.4,3.91-13.4,3.91C22.38,34.91,19.29,26.54,19.29,26.54ZM52.84,94.28l-.25-1.74h0l-.24,1.74-.49,3h1.6Zm65.79,21.55a15.77,15.77,0,0,0,4.75-4.54,20.06,20.06,0,0,0-8.17,1Zm7.24-45.45s-3.11-8.27-9.87-9.86c0,0,0,6.14,10.09,12.48,0,0,8.44-7.51,5.86-17.69C132,55.31,125.23,61.18,125.87,70.38ZM113.2,95s-3.94,4.7-.29,16c0,0,11.3-.31,15.86-9.76,0,0-8.92.16-14.33,7.62C114.44,108.93,117.35,100.6,113.2,95Zm12.4-14.41s-1.63-8.68-8-11.43c0,0-1.08,6,7.76,14,0,0,9.63-5.93,8.86-16.39C134.21,66.85,126.56,71.45,125.6,80.62Zm-8-2.61s-2.1,5.77,5.21,15.19c0,0,10.51-4.17,11.57-14.61,0,0-8.33,3.2-10.86,12.07C123.56,90.66,123.45,81.83,117.64,78Zm6.69,7.75a1,1,0,1,0-1-1A1,1,0,0,0,124.33,85.76Zm-6.09,17.83a1,1,0,1,0-1,1A1,1,0,0,0,118.24,103.59Zm-88-62h0a15.05,15.05,0,0,1-7.72,3.5L24,46.46l15.78-.07L34.89,41.5h0L32.4,39A25.75,25.75,0,0,1,30.21,41.55Zm61,51.06h0L91,94.35l-.48,3.05h1.59l-.58-3.05ZM58.32,78.94a1.28,1.28,0,0,0-1.53-1.43h-.31v3l.4,0C57.91,80.58,58.32,79.88,58.32,78.94Zm9.75-5v38.88a8.18,8.18,0,0,1,5.25-2.19H97.44V62.4h-13S80.74,73.77,68.07,73.94ZM71,75.71h2.27V85h2.37v2.13H71Zm7.35,25.42-.55-8.26h0l-.37,2.83-1,5.43H74.66l-1.12-5.49-.38-2.56v-.21h0l-.34,8.26H70.36l1-11.46h3l1.1,6.76h0l.91-6.76h3l1.2,11.46Zm14.5,0L92.4,99.2H90.1l-.41,1.93H87.44L90.1,89.67h2.39l2.76,11.46Zm-6.9-25.42h2.55l.66,1.59a15.43,15.43,0,0,1,.55,1.75h0a10.28,10.28,0,0,1,.52-1.75l.67-1.59h2.46L90.9,81.26l2.63,5.91H90.9l-.72-1.82a16.61,16.61,0,0,1-.5-1.72h0c-.17.57-.31,1.14-.5,1.72l-.68,1.82H85.92l2.43-5.91Zm.62,14v2.12H84.25v2.49h2v2.14h-2V99h2.32v2.13H82V89.67ZM80.71,85.3c1.11,0,1.11-.84,1.12-1.69v-7.9H84.1v8.36c0,1.22-.14,3.28-3.41,3.28-2.11,0-3.37-1-3.37-3.13V75.71h2.27v7.42C79.59,84,79.48,85.3,80.71,85.3ZM37.26,34.81s-1,1.49-4.93,2.34l4.93,4.56ZM49.78,54.76c0,12.14,7.61,17.74,17,17.74s17-5.59,17-17.74V20.18h-34S49.78,42.64,49.78,54.76ZM58,30.25V25.14H73.91v7.31h5.25v5.26h-5.1v2.34h5.1v5.7h-5.1v17.1H69.67L63.6,56.78l-5.55,5.56-4-4,9.21-9.21L68,53.87V30.25ZM35.27,57.06l4.06,3.58h9.15c-.44-.73-.3-3.51-.3-3.51Zm73.64,45.73a4.31,4.31,0,0,0-1,1.95l2.19,2.29A10.81,10.81,0,0,0,108.91,102.79Zm-86.56,9.35c3.38-11.43-.68-16-.68-16-4,5.66-.9,13.92-.9,13.92-5.58-7.33-14.51-7.29-14.51-7.29C11,112.08,22.35,112.14,22.35,112.14Zm-.56-75.72C33.62,37.77,37.46,33,37.46,33c-6.28-3-13.87,1.53-13.87,1.53,6.26-6.77,4.65-15.56,4.65-15.56C19.88,25.28,21.79,36.42,21.79,36.42Zm24.78,83.75c.57,6.93,8.26,11.25,8.26,11.25-9-2-15.81,3.74-15.81,3.74,9.67,4.08,18.37-3.14,18.37-3.14C52.64,121.09,46.57,120.17,46.57,120.17Zm-30.18-16.4c5.32-10.66,2.13-15.9,2.13-15.9-4.94,4.87-3.31,13.55-3.31,13.55-4.22-8.19-13-9.7-13-9.7C5.28,101.75,16.39,103.77,16.39,103.77Zm23.9,12.93H38.81C38.73,123.24,45,128.4,45,128.4c-8.5-3.56-16.2.94-16.2.94,8.81,5.71,18.62.1,18.62.1C45.54,121.48,42.2,118.06,40.29,116.7Zm-21.94,4.94a12,12,0,0,1,4-1.31l-2.62-.62-.24.33.24-.33L8.14,131.89s-1.32,1.9-.07,3.15a2.33,2.33,0,0,0,2.78-.15L22.12,125C21,124.45,18.48,122.37,18.35,121.64ZM12,94.5c7.09-9.58,4.85-15.3,4.85-15.3C11.13,83.15,11.22,92,11.22,92,8.49,83.18.09,80.16.09,80.16,1.39,90.58,12,94.5,12,94.5Zm5.94-68.57L4.23,12.23S-1.5,16.34,3,25.93Zm6.2-5-8.06-8.13a9.33,9.33,0,0,0-10.91-1.7L21,26.92A13.3,13.3,0,0,1,24.13,20.94ZM9.28,86.05a1,1,0,1,0,2.08,0,1,1,0,0,0-2.08,0Zm0-1.45c8.64-8.2,7.43-14.22,7.43-14.22C10.38,73.27,8.94,82,8.94,82,7.78,72.85,0,68.42,0,68.42-.51,78.9,9.26,84.6,9.26,84.6Zm7.58,20.18a1,1,0,1,0,1.05-1A1,1,0,0,0,16.84,104.78ZM104,120a1,1,0,1,0-1-1A1,1,0,0,0,104,120Zm5.54-1.34-3.67-3c.09.93.2,1.92.38,3A19,19,0,0,0,109.55,118.64Zm10.24-18.45s1.44-8.71-3.62-13.47c0,0-3.08,5.32,2.49,15.85,0,0,11.07-2.28,13.93-12.37C132.59,90.2,123.82,91.91,119.79,100.19ZM50.32,129.27a1,1,0,0,0-2.08,0,1,1,0,0,0,2.08,0ZM99.62,123a19.89,19.89,0,0,0,3.37-6.5l-4.23-.07a30,30,0,0,0-1.31,8.06s9.15,3,16.48-2.26l-2.82-2.27A18.53,18.53,0,0,0,99.62,123Zm3.09-16.88v5.55l24.84,20.61h5L107.23,106.1Zm-36.4,24v2.59c-1.2-1.89-5.88-8.74-11.17-9.07,0,0,1.79,6.12,9.72,9.71,0,0-9.94.67-14,6.1a21,21,0,0,0,15.44-6v4.23h2.63v-7.6Zm4.39,3.21c7.89-3.65,9.64-9.79,9.64-9.79-6.14.44-11.4,9.65-11.4,9.65a21,21,0,0,0,15.78,6.14C80.63,133.87,70.7,133.28,70.7,133.28Zm10.19-2.16s7.6-4.51,8-11.45c0,0-6,1.07-10.53,12.11,0,0,8.85,7,18.43,2.71C96.78,134.49,89.84,128.88,80.89,131.12Zm9.73-3.26s5.89-5.06,5.94-11.38l-2.1.08c-1.91,1.67-4.7,5.22-6.24,12.4,0,0,10,5.38,18.62-.52C106.84,128.44,99,124.11,90.62,127.86Zm-5.23,1a1,1,0,1,0,1-1.05A1,1,0,0,0,85.39,128.87Zm36.82-76s5.37-9.94-.53-18.62c0,0-4.33,7.81-.57,16.22,0,0-5.75-6.69-12.65-5.88C108.46,44.63,110.56,50.4,122.21,52.91ZM96.93,29.66l3.15-3.26c-2.68-.62-7.73-1.52-11.81,1.52C88.27,27.92,90.37,30.3,96.93,29.66Zm21,16.87a1,1,0,0,0,0-2.09,1,1,0,1,0,0,2.09ZM125,62.79s7-8.87,2.71-18.44c0,0-5.61,6.94-3.37,15.89,0,0-4.5-7.6-11.44-8C112.92,52.25,114,58.29,125,62.79ZM109.86,12.88a6.24,6.24,0,0,0,5.93-.08,5.69,5.69,0,0,1,6.3.69,5.17,5.17,0,0,1,2.13,4.62c0,2-.57,2.15-.57,2.15-1.22.83-.92-.58-.92-.58s.28-1,.28-1a4.46,4.46,0,0,0-3.6-5.19A4.58,4.58,0,0,0,114,16.74a7.5,7.5,0,0,0-.18,2.93l-5.39-5.4.25,4.57,12,12.06h4.32l-4.38-4.38a18.77,18.77,0,0,0,4.34.8,7.18,7.18,0,0,0,6.8-6.26c1.63-6.16-4.21-11.13-4.21-11.13-3.89-3.34-9.77-3.61-9.77-3.61C109.48,5.35,106.51,0,106.51,0a16.5,16.5,0,0,0-.73,6C106.34,11.58,109.86,12.88,109.86,12.88Zm13.69,51.61a1,1,0,0,0,1,1,1,1,0,1,0-1-1ZM100.7,25.6,103.25,23a16.26,16.26,0,0,0-8.7-10.66A18.15,18.15,0,0,0,100.7,25.6Zm6.39,72h-4.38v5.55h4.38Zm3.41-55a31,31,0,0,0,7.23,1.09,21.83,21.83,0,0,0,.73-8.71l-3.79,3.64a18.6,18.6,0,0,0,1.56,2.89,20.21,20.21,0,0,0-2.71-1.8ZM27.2,30.74a1,1,0,1,0,1-1A1,1,0,0,0,27.2,30.74ZM118.93,32,107.67,20.74l-10.09,11,10.83,10.67ZM95,32.36l-2.26,2.71L105,47.34l2.49-2.48Zm11.84,38.07h-4.38V76h4.38Zm-52.54-53s3.46,2.28,9.52-1.89C63.85,15.51,56.34,12.42,54.33,17.4Zm39.11,3.93a13.65,13.65,0,0,0-7.71.44l0,3.92c2.63-.05,5.29-.68,10.11-3.22,0,0-2.29-11.07-12.37-13.93C83.45,8.54,85.15,17.31,93.44,21.33ZM48.18,26.22l.08-3.82A20.55,20.55,0,0,0,39.72,22c8.19-4.22,9.68-13,9.68-13-10,3.09-12,14.21-12,14.21A25.74,25.74,0,0,0,48.18,26.22ZM45,28.43c-5.67-4-13.93-.91-13.93-.91C38.43,21.94,38.39,13,38.39,13,29.05,17.8,29,29.11,29,29.11,40.42,32.49,45,28.43,45,28.43Zm-.65-8.38a1,1,0,1,0,1-1A1,1,0,0,0,44.38,20.05ZM46.9,19l7.87-.11a10.66,10.66,0,0,0-5.12-1.42A17.74,17.74,0,0,0,61,6.84C50.55,8.14,46.63,18.75,46.63,18.75Zm42,.53a1,1,0,0,0-2.08,0,1,1,0,0,0,2.08,0Zm-5.52-2.06a10.63,10.63,0,0,0-5.11,1.42L86.1,19l.28-.2S82.46,8.14,72,6.84A17.74,17.74,0,0,0,83.35,17.42Zm-16.9-1.21a1.39,1.39,0,1,0-1.39-1.39A1.39,1.39,0,0,0,66.45,16.21Zm12.21.73c-2.2-4.9-9.57-1.54-9.57-1.54C75.3,19.35,78.66,16.94,78.66,16.94Z"/><path class="a" d="M195.05,49.19s-8.57-4.93-9-5.72a2.88,2.88,0,0,1-.91-2A4,4,0,0,1,187,37.6s.94-1.17,4.65-1.17a10.59,10.59,0,0,1,5.24,1.62l-.21-3.37s-6.83-1.64-10.52.18-4.6,4.63-4.6,6.6a7.63,7.63,0,0,0,4.08,6.43s7.66,3.83,9.52,6.13a5.35,5.35,0,0,1,0,5.57,7.42,7.42,0,0,1-6,2.67s-4.49,0-7.3-1.6l.27,3.13a56.87,56.87,0,0,0,7.08.63s4.92.17,7.36-1.75a8.37,8.37,0,0,0,3.12-6S200.4,52.3,195.05,49.19Z"/><path class="a" d="M209.91,61.46V48.74h9.32a2.27,2.27,0,0,1,1.36.37V46.5H209.91V36.79h9.63a2.79,2.79,0,0,1,1.53.54L221,34.2H206.09a5.12,5.12,0,0,1,.53,2.2V61.91s.11.43-.56,1.91h16l.43-2.89c-.69.58-2.89.53-2.89.53Z"/><path class="a" d="M242.43,34.05a14.84,14.84,0,1,0,14.7,14.85A14.76,14.76,0,0,0,242.43,34.05Zm0,27.37c-6.37,0-11.52-5.61-11.52-12.52s5.15-12.55,11.52-12.55S254,42,254,48.9,248.81,61.42,242.43,61.42Z"/><path class="a" d="M451.16,34.05A14.84,14.84,0,1,0,465.85,48.9,14.77,14.77,0,0,0,451.16,34.05Zm0,27.37c-6.37,0-11.53-5.61-11.53-12.52s5.16-12.55,11.53-12.55S462.69,42,462.69,48.9,457.53,61.42,451.16,61.42Z"/><path class="a" d="M287.06,34.22h-4c.43.28.49,1.48.49,1.48v18a8.08,8.08,0,0,1-16.16,0l0-.42-.07-19-3.18-.07V53.75c.08,5.73,5.09,10.35,11.27,10.35s11.27-4.71,11.27-10.49h0v-18A4.91,4.91,0,0,1,287.06,34.22Z"/><path class="a" d="M299.18,61.65V36.1a2.9,2.9,0,0,1,.51-1.85h-4.12a1.89,1.89,0,0,1,.33,1.27v28.3h15.83l.93-2.68a5.83,5.83,0,0,1-2.52.51Z"/><path class="a" d="M542.75,61.65V36.1a2.94,2.94,0,0,1,.5-1.85h-4.11a1.89,1.89,0,0,1,.33,1.27v28.3h15.79l1-2.68a5.92,5.92,0,0,1-2.54.51Z"/><path class="a" d="M358.31,36.29V57L337.62,34.2h-3.35a3.73,3.73,0,0,1,.58,2.26V61.71a6,6,0,0,1-.43,2v0h3.28a6.52,6.52,0,0,1-.36-2.15V38.35l23.23,25.22V36.18a7.4,7.4,0,0,1,.39-2h-3.15C358.36,34.76,358.31,36.29,358.31,36.29Z"/><path class="a" d="M496.48,36.29V57L475.79,34.2h-3.37a3.64,3.64,0,0,1,.6,2.26V61.71a6.32,6.32,0,0,1-.43,2v0h3.28a6.52,6.52,0,0,1-.36-2.15V38.35l23.23,25.22V36.18a6.81,6.81,0,0,1,.43-2H496C496.54,34.76,496.48,36.29,496.48,36.29Z"/><path class="a" d="M381.24,34.2h-3.77a4.24,4.24,0,0,1,.12,2.45L368,61a12.16,12.16,0,0,1-1.85,2.79h3.57a2.92,2.92,0,0,1,.34-1.83L374,52.45h12.09l4.08,8.42a6.58,6.58,0,0,1,.51,3h5.06A23.28,23.28,0,0,1,393,59.54Zm-6.52,16,4.71-11.95,5.68,11.95Z"/><path class="a" d="M519.93,34.2h-3.76a4.24,4.24,0,0,1,.12,2.45L506.74,61a12.39,12.39,0,0,1-1.84,2.79h3.56a2.87,2.87,0,0,1,.33-1.83l3.91-9.54h12.08l4.08,8.42a6.25,6.25,0,0,1,.51,3h5.06a22.85,22.85,0,0,1-2.71-4.28Zm-5.77,16,4.71-11.95,5.66,11.95Z"/><path class="a" d="M396.38,34.26l-.22.05-.7,2.55a4,4,0,0,1,1.82-.35h8V62.2a10.87,10.87,0,0,1-.28,1.69h4.28a5,5,0,0,1-.47-1.77V36.58H415a8.49,8.49,0,0,1,3.35.63l-.58-3Z"/><path class="a" d="M429.32,34.2h-4.08a3.74,3.74,0,0,1,.51,1.65v26a5.86,5.86,0,0,1-.51,2h4.06a4.39,4.39,0,0,1-.5-2.1v-26A4.19,4.19,0,0,1,429.32,34.2Z"/><path class="a" d="M750.75,49s-8.57-4.92-9-5.71a2.91,2.91,0,0,1-.92-2,4,4,0,0,1,1.91-3.86s.95-1.17,4.66-1.17a10.82,10.82,0,0,1,5.26,1.6l-.21-3.36s-6.85-1.63-10.54.22-4.6,4.61-4.6,6.55a7.71,7.71,0,0,0,4.08,6.46s7.65,3.83,9.52,6.13a5.24,5.24,0,0,1,0,5.55,7.41,7.41,0,0,1-6,2.68s-4.5,0-7.31-1.61l.27,3.12a56.23,56.23,0,0,0,7.08.64s4.93.17,7.35-1.75c0,0,3.15-2.38,3.15-6C755.47,56.49,756.08,52.13,750.75,49Z"/><path class="a" d="M692,61.44V48.71h9.3a2.34,2.34,0,0,1,1.38.38V46.47H692V36.79h9.63a2.89,2.89,0,0,1,1.53.52L703,34.18H688.12a4.93,4.93,0,0,1,.55,2.2v25.5s.1.44-.58,1.93h16l.42-2.92c-.69.59-2.9.55-2.9.55Z"/><path class="a" d="M596.85,34h-4c.43.26.48,1.49.48,1.49v18a8.07,8.07,0,0,1-16.14,0l0-.4-.06-19L574,34.05V53.57c.08,5.72,5.1,10.35,11.25,10.35s11.29-4.7,11.29-10.51h0V35.47A4.84,4.84,0,0,1,596.85,34Z"/><path class="a" d="M630.69,36.26V57L610,34.18h-3.36a3.56,3.56,0,0,1,.59,2.25V61.67a6.31,6.31,0,0,1-.43,2v0h3.28a6.39,6.39,0,0,1-.36-2.13V38.34L633,63.55V36.13a7.27,7.27,0,0,1,.39-2h-3.17C630.73,34.74,630.69,36.26,630.69,36.26Z"/><path class="a" d="M773.19,34.18l-.24,0-.71,2.54a4.2,4.2,0,0,1,1.83-.34h8v25.7a10.62,10.62,0,0,1-.29,1.67H786a5.1,5.1,0,0,1-.46-1.77V36.48h6.21a8.2,8.2,0,0,1,3.32.64l-.57-2.94Z"/><path class="a" d="M766.55,34.07h-4.08a3.76,3.76,0,0,1,.52,1.66v26a6.34,6.34,0,0,1-.5,2.05h4a4.46,4.46,0,0,1-.49-2.1v-26A4.22,4.22,0,0,1,766.55,34.07Z"/><path class="a" d="M647.94,34.07h-4.09a3.81,3.81,0,0,1,.51,1.66v26a6.34,6.34,0,0,1-.5,2.05h4.06a4.39,4.39,0,0,1-.5-2.1v-26A3.93,3.93,0,0,1,647.94,34.07Z"/><path class="a" d="M678.57,36.18,668.52,58.36,658.3,36.18c-.8-1.43-.4-2.08-.4-2.08h-4.31a45.87,45.87,0,0,1,2.3,4.4l12.38,25.92,12.82-27.51a11,11,0,0,1,2.08-2.81H679S679.38,34.75,678.57,36.18Z"/><path class="a" d="M730.05,59.17l-9.24-10.83c2.74,0,5.6-2.43,5.6-2.43,2.11-1.8,2.11-5.08,2.11-5.08a6.59,6.59,0,0,0-2.16-4.6c-2.28-2.33-5.94-2.14-5.94-2.14a75.7,75.7,0,0,0-8.06.29,2.19,2.19,0,0,1,.47,1.36V62.26a3.6,3.6,0,0,1-.35,1.43h4a2.5,2.5,0,0,1-.45-1.39V47.17h0l0,0V37.31l.07-.31s.05-.74,2.75-.74c0,0,3,0,4.28,1.42A5.08,5.08,0,0,1,725,41s.12,3-1.47,4.15c0,0-2,2-7.37,2l13.28,16.48h4.67C733.09,62.81,730.05,59.17,730.05,59.17Z"/><path class="a" d="M817.38,35.27,811,46.12l-6.75-10.59a1.73,1.73,0,0,1-.29-1.38h-4.8a9.43,9.43,0,0,1,1.75,2.16l7.83,12.18V62.13a4,4,0,0,1-.3,1.58h4.22a3.74,3.74,0,0,1-.46-1.45V48.54l7.11-11c2.18-3.57,2.39-3.48,2.39-3.48h-4.06A3.24,3.24,0,0,1,817.38,35.27Z"/><path class="a" d="M192.71,109.94h-7.42V89.42c0-2.08-.07-3.92-1.26-4.42v-.22h8.68c8.56,0,12.45,6.52,12.45,12.56S201.27,109.94,192.71,109.94ZM192.13,87H188v20.74h4.18c7.56,0,10.22-5.62,10.22-10.37S199.69,87,192.13,87Z"/><path class="a" d="M223.7,101.45H211.28c.07,4.14,2.34,6.66,5.69,7,.29,0,.54,0,.83,0a9.71,9.71,0,0,0,5-1.51l.32,2a11,11,0,0,1-6,1.51c-5,0-8.42-3.78-8.42-9.18,0-5.22,3.35-9.14,7.81-9.14a6.62,6.62,0,0,1,5.18,2.12,9.92,9.92,0,0,1,2.06,6.63A2.46,2.46,0,0,1,223.7,101.45Zm-2.59-2c-.18-3.35-2-5.29-4.64-5.29s-4.47,1.9-5,5.29Z"/><path class="a" d="M243.43,101.16c0,4.43-2.31,9.25-8.28,9.32h-.29a6.58,6.58,0,0,1-3.78-1.08v9.79H228.6V96.34c0-1.37-.18-2.81-1.19-3.46v-.14h3.53l.07,1.72a6.79,6.79,0,0,1,4.9-2.3h.43a6.53,6.53,0,0,1,4.89,2,9.29,9.29,0,0,1,2.2,6.55v.43Zm-2.59-.11v-.11a7.55,7.55,0,0,0-1.8-5.25,4.74,4.74,0,0,0-3.53-1.48h-.15a5.87,5.87,0,0,0-4.28,2.27v10.58a6.09,6.09,0,0,0,4.14,1.37c3.6,0,5.54-2.84,5.62-7.16Z"/><path class="a" d="M260.31,109.83a5.15,5.15,0,0,1-2.19.54h-.18a2,2,0,0,1-2.06-1.83,5.75,5.75,0,0,1-4.53,1.91,4.79,4.79,0,0,1-2.95-.9,4.61,4.61,0,0,1-1.62-3.57c0-5,5.36-6.4,9-6.48V98c0-2.3-.87-3.78-3.46-3.78a6.83,6.83,0,0,0-4.57,1.91v-2.2a7.77,7.77,0,0,1,5.15-1.76c2.7,0,5.4,1.4,5.4,5.36v9.72c0,1.05.39,1.51,1.08,1.51a2.55,2.55,0,0,0,.93-.21Zm-4.53-8.63c-4.94.21-6.52,2.23-6.52,4.42a2.75,2.75,0,0,0,2.92,2.95,4.35,4.35,0,0,0,3.6-2Z"/><path class="a" d="M274.14,95.4a4.14,4.14,0,0,0-2.7-.86c-1.66,0-4.36,1.18-4.36,6.8v8.6H264.6V96.34c0-1.37-.18-2.81-1.19-3.42v-.18H267L267,96c1.41-3.27,3.86-3.78,4.9-3.78a4.05,4.05,0,0,1,2.74.94Z"/><path class="a" d="M288.21,109.47a7.75,7.75,0,0,1-3.74,1c-3.24,0-5-1.94-5-5.25V94.75h-2.63v-.43L282,88.88v3.86h5.37v2H282v10.41c0,2,1,3.23,2.7,3.27H285a5.88,5.88,0,0,0,3.2-1Z"/><path class="a" d="M316.9,109.94h-2.52V98.42c0-2.52-1-4.1-3.49-4.1-1.84,0-3.63,1.33-4.79,3.31v12.31h-2.48V98.42c0-2.52-1-4.1-3.53-4.1-1.83,0-3.6,1.37-4.75,3.28v12.34h-2.48V96.34c0-1.37-.18-2.81-1.19-3.42v-.18h3.67V95A6.54,6.54,0,0,1,301,92.27a4.81,4.81,0,0,1,4.64,3.09,7.06,7.06,0,0,1,6.12-3.09c1.59,0,5.15.75,5.15,5.94Z"/><path class="a" d="M336.63,101.45H324.21c.07,4.14,2.34,6.66,5.69,7,.29,0,.54,0,.83,0a9.71,9.71,0,0,0,5-1.51l.32,2a11,11,0,0,1-6,1.51c-5,0-8.42-3.78-8.42-9.18,0-5.22,3.35-9.14,7.81-9.14a6.62,6.62,0,0,1,5.18,2.12,9.92,9.92,0,0,1,2.06,6.63A2.46,2.46,0,0,1,336.63,101.45Zm-2.59-2c-.18-3.35-2-5.29-4.64-5.29s-4.47,1.9-5,5.29Z"/><path class="a" d="M354.92,109.94H352.4V98.39c0-2.49-1.08-4.07-3.56-4.07A6,6,0,0,0,344,97.6v12.34h-2.49V96.34c0-1.37-.18-2.81-1.19-3.46v-.14H344V95a6.65,6.65,0,0,1,5.72-2.77c1.58,0,5.22.75,5.22,5.94Z"/><path class="a" d="M370.61,109.47a7.75,7.75,0,0,1-3.74,1c-3.24,0-5-1.94-5-5.25V94.75h-2.62v-.43l5.11-5.44v3.86h5.36v2h-5.36v10.41c0,2,1,3.23,2.7,3.27h.32a5.88,5.88,0,0,0,3.2-1Z"/><path class="a" d="M392.68,110.48c-4.93,0-8.67-3.85-8.67-9.14s3.74-9.14,8.71-9.14,8.75,3.78,8.75,9.14C401.47,106,398.44,110.48,392.68,110.48Zm0-16.27c-3.56,0-6.12,3-6.12,7.13s2.56,7.13,6.12,7.13,6.15-3,6.15-7.13S396.28,94.21,392.72,94.21Z"/><path class="a" d="M414.21,86.73a3.47,3.47,0,0,0-1.76-.47,2.92,2.92,0,0,0-2.16.79c-.76.72-1.16,1.76-1.16,3.71v2h4.18v2h-4.18v15.19h-2.48V94.75H404.1v-2h2.55V91.55c0-3.1.43-4.61,1.73-5.87a5.32,5.32,0,0,1,3.92-1.44,4.06,4.06,0,0,1,1.91.43Z"/><path class="a" d="M446.36,108.5a12.94,12.94,0,0,1-7.42,2c-7.45,0-12.89-5.55-12.89-13.18s5.44-13.17,12.89-13.17a12.73,12.73,0,0,1,7.42,2v2.73a11.88,11.88,0,0,0-7.56-2.44c-5.73,0-9.9,4.6-9.9,10.9s4.17,10.91,9.9,10.91a11.86,11.86,0,0,0,7.56-2.41Z"/><path class="a" d="M459.46,110.48c-4.93,0-8.67-3.85-8.67-9.14s3.74-9.14,8.71-9.14,8.74,3.78,8.74,9.14C468.24,106,465.22,110.48,459.46,110.48Zm0-16.27c-3.57,0-6.12,3-6.12,7.13s2.55,7.13,6.12,7.13,6.15-3,6.15-7.13S463.06,94.21,459.5,94.21Z"/><path class="a" d="M496.76,109.94h-2.52V98.42c0-2.52-1-4.1-3.5-4.1-1.83,0-3.63,1.33-4.78,3.31v12.31h-2.49V98.42c0-2.52-1-4.1-3.52-4.1-1.84,0-3.6,1.37-4.76,3.28v12.34h-2.48V96.34c0-1.37-.18-2.81-1.19-3.42v-.18h3.67V95a6.56,6.56,0,0,1,5.66-2.77,4.83,4.83,0,0,1,4.64,3.09,7,7,0,0,1,6.12-3.09c1.58,0,5.15.75,5.15,5.94Z"/><path class="a" d="M526.89,109.94h-2.52V98.42c0-2.52-1-4.1-3.5-4.1-1.83,0-3.63,1.33-4.78,3.31v12.31H513.6V98.42c0-2.52-1-4.1-3.52-4.1-1.84,0-3.6,1.37-4.76,3.28v12.34h-2.48V96.34c0-1.37-.18-2.81-1.19-3.42v-.18h3.67V95A6.56,6.56,0,0,1,511,92.27a4.83,4.83,0,0,1,4.64,3.09,7,7,0,0,1,6.12-3.09c1.58,0,5.15.75,5.15,5.94Z"/><path class="a" d="M544,109.94l0-2.3a6.64,6.64,0,0,1-5.87,2.77c-1.58,0-5.18-.76-5.18-6l0-8.1c0-1.37-.18-2.81-1.19-3.46v-.14h3.68v11.51c0,2.52,1.08,4.11,3.6,4.11a5.86,5.86,0,0,0,4.82-3.35V92.74h2.52v12.63a23.28,23.28,0,0,0,.32,4.57Z"/><path class="a" d="M566.24,109.94h-2.52V98.39c0-2.49-1.08-4.07-3.57-4.07a6,6,0,0,0-4.86,3.28v12.34h-2.48V96.34c0-1.37-.18-2.81-1.19-3.46v-.14h3.67V95A6.68,6.68,0,0,1,561,92.27c1.58,0,5.22.75,5.22,5.94Z"/><path class="a" d="M574.8,109.94h-2.48V96.34c0-1.37-.18-2.81-1.19-3.42v-.18h3.67Zm-1.33-21.7a1.66,1.66,0,1,1,1.66-1.66A1.62,1.62,0,0,1,573.47,88.24Z"/><path class="a" d="M592.84,95.29a7.22,7.22,0,0,0-4.07-1.08c-3.67,0-6.33,3-6.33,7.13s2.66,7.09,6.33,7.09a7.22,7.22,0,0,0,4.07-1.08v2.2a8.41,8.41,0,0,1-4.07.93c-5.15,0-8.93-3.78-8.93-9.14s3.78-9.18,8.93-9.18a8.3,8.3,0,0,1,4.07.94Z"/><path class="a" d="M610.26,109.83a5.15,5.15,0,0,1-2.19.54h-.18a2,2,0,0,1-2.06-1.83,5.73,5.73,0,0,1-4.53,1.91,4.79,4.79,0,0,1-2.95-.9,4.61,4.61,0,0,1-1.62-3.57c0-5,5.36-6.4,9-6.48V98c0-2.3-.87-3.78-3.46-3.78a6.83,6.83,0,0,0-4.57,1.91v-2.2a7.77,7.77,0,0,1,5.15-1.76c2.7,0,5.4,1.4,5.4,5.36v9.72c0,1.05.39,1.51,1.08,1.51a2.55,2.55,0,0,0,.93-.21Zm-4.53-8.63c-4.93.21-6.52,2.23-6.52,4.42a2.75,2.75,0,0,0,2.92,2.95,4.34,4.34,0,0,0,3.6-2Z"/><path class="a" d="M624.16,109.47a7.78,7.78,0,0,1-3.74,1c-3.24,0-5-1.94-5-5.25V94.75h-2.63v-.43l5.11-5.44v3.86h5.36v2h-5.36v10.41c0,2,1,3.23,2.7,3.27H621a5.9,5.9,0,0,0,3.2-1Z"/><path class="a" d="M631.29,109.94H628.8V96.34c0-1.37-.18-2.81-1.18-3.42v-.18h3.67ZM630,88.24a1.66,1.66,0,1,1,1.65-1.66A1.62,1.62,0,0,1,630,88.24Z"/><path class="a" d="M645,110.48c-4.93,0-8.67-3.85-8.67-9.14s3.74-9.14,8.71-9.14,8.75,3.78,8.75,9.14C653.79,106,650.76,110.48,645,110.48Zm0-16.27c-3.56,0-6.12,3-6.12,7.13s2.56,7.13,6.12,7.13,6.15-3,6.15-7.13S648.6,94.21,645,94.21Z"/><path class="a" d="M671.68,109.94h-2.52V98.39c0-2.49-1.08-4.07-3.57-4.07a6,6,0,0,0-4.85,3.28v12.34h-2.49V96.34c0-1.37-.18-2.81-1.19-3.46v-.14h3.68V95a6.65,6.65,0,0,1,5.72-2.77c1.58,0,5.22.75,5.22,5.94Z"/></svg>